<?xml version="1.0" encoding="utf-8"?>
<!-- Generator: Adobe Illustrator 27.5.0, SVG Export Plug-In . SVG Version: 6.00 Build 0)  -->
<svg version="1.1" xmlns="http://www.w3.org/2000/svg" xmlns:xlink="http://www.w3.org/1999/xlink" x="0px" y="0px"
	 viewBox="0 0 500 500" style="enable-background:new 0 0 500 500;" xml:space="preserve">
<g id="Background_Complete">
	<g>
		<rect x="416.779" y="398.494" style="fill:#EBEBEB;" width="33.122" height="0.25"/>
		<rect x="322.527" y="401.208" style="fill:#EBEBEB;" width="8.693" height="0.25"/>
		<rect x="396.586" y="389.208" style="fill:#EBEBEB;" width="19.192" height="0.25"/>
		<rect x="52.459" y="390.888" style="fill:#EBEBEB;" width="43.193" height="0.25"/>
		<rect x="104.556" y="390.888" style="fill:#EBEBEB;" width="6.333" height="0.25"/>
		<rect x="131.471" y="395.111" style="fill:#EBEBEB;" width="93.676" height="0.25"/>
		<path style="fill:#EBEBEB;" d="M237.014,337.8H43.915c-3.147,0-5.708-2.561-5.708-5.708V60.66c0-3.147,2.561-5.708,5.708-5.708
			h193.099c3.146,0,5.707,2.561,5.707,5.708v271.432C242.721,335.239,240.16,337.8,237.014,337.8z M43.915,55.203
			c-3.01,0-5.458,2.448-5.458,5.458v271.432c0,3.01,2.448,5.458,5.458,5.458h193.099c3.009,0,5.457-2.448,5.457-5.458V60.66
			c0-3.009-2.448-5.458-5.457-5.458H43.915z"/>
		<path style="fill:#EBEBEB;" d="M453.31,337.8H260.212c-3.147,0-5.707-2.561-5.707-5.708V60.66c0-3.147,2.561-5.708,5.707-5.708
			H453.31c3.148,0,5.708,2.561,5.708,5.708v271.432C459.019,335.239,456.458,337.8,453.31,337.8z M260.212,55.203
			c-3.009,0-5.457,2.448-5.457,5.458v271.432c0,3.01,2.448,5.458,5.457,5.458H453.31c3.01,0,5.458-2.448,5.458-5.458V60.66
			c0-3.009-2.448-5.458-5.458-5.458H260.212z"/>
		<rect y="382.398" style="fill:#EBEBEB;" width="500" height="0.25"/>
	</g>
	<g>
		<g>
			<g>
				
					<rect x="287.626" y="328.618" transform="matrix(-1 -1.224647e-16 1.224647e-16 -1 645.5932 681.5158)" style="fill:#F0F0F0;" width="70.34" height="24.28"/>
				
					<rect x="287.626" y="352.898" transform="matrix(-1 -1.224647e-16 1.224647e-16 -1 645.5932 730.0763)" style="fill:#F0F0F0;" width="70.34" height="24.28"/>
				<g>
					<polygon style="fill:#FAFAFA;" points="331.237,352.898 322.485,328.618 335.955,328.618 344.707,352.898 					"/>
					<polygon style="fill:#FAFAFA;" points="315.967,328.618 318.925,328.618 327.677,352.898 324.718,352.898 					"/>
				</g>
				<g>
					<polygon style="fill:#FAFAFA;" points="339.989,377.178 331.237,352.898 344.706,352.898 353.458,377.178 					"/>
					<polygon style="fill:#FAFAFA;" points="324.718,352.898 327.677,352.898 336.429,377.178 333.47,377.178 					"/>
				</g>
				
					<rect x="321.568" y="295.953" transform="matrix(-1.836970e-16 1 -1 -1.836970e-16 653.9203 8.3271)" style="fill:#E0E0E0;" width="2.456" height="70.34"/>
				
					<rect x="321.568" y="320.044" transform="matrix(-1.836970e-16 1 -1 -1.836970e-16 678.0109 32.4178)" style="fill:#E0E0E0;" width="2.457" height="70.34"/>
				<g>
					<path style="fill:#E0E0E0;" d="M320.997,343.866c-0.583,0-1.055-0.472-1.055-1.055c0-0.583,0.472-1.055,1.055-1.055
						c0.295,0,3.303,0,3.599,0c0.583,0,1.055,0.472,1.055,1.055c0,0.583-0.472,1.055-1.055,1.055
						C324.277,343.866,321.316,343.866,320.997,343.866z"/>
					<path style="fill:#F5F5F5;" d="M320.997,343.494c-0.583,0-1.055-0.472-1.055-1.055c0-0.583,0.472-1.055,1.055-1.055
						c0.295,0,3.303,0,3.599,0c0.583,0,1.055,0.472,1.055,1.055c0,0.583-0.472,1.055-1.055,1.055
						C324.277,343.494,321.316,343.494,320.997,343.494z"/>
				</g>
				<g>
					<path style="fill:#E0E0E0;" d="M320.997,366.279c-0.583,0-1.055-0.472-1.055-1.055c0-0.583,0.472-1.055,1.055-1.055
						c0.295,0,3.303,0,3.599,0c0.583,0,1.055,0.472,1.055,1.055c0,0.583-0.472,1.055-1.055,1.055
						C324.277,366.279,321.316,366.279,320.997,366.279z"/>
					<path style="fill:#F5F5F5;" d="M320.997,365.907c-0.583,0-1.055-0.472-1.055-1.055c0-0.583,0.472-1.055,1.055-1.055
						c0.295,0,3.303,0,3.599,0c0.583,0,1.055,0.472,1.055,1.055c0,0.583-0.472,1.055-1.055,1.055
						C324.277,365.907,321.316,365.907,320.997,365.907z"/>
				</g>
				<path style="fill:#F5F5F5;" d="M286.398,327.53v50.709h1.228h1.228h67.884h1.228h1.228V327.53H286.398z M288.855,354.182h67.884
					v21.601h-67.884V354.182z M288.855,330.124h67.884v21.601h-67.884V330.124z"/>
				<g>
					
						<rect x="214.829" y="328.618" transform="matrix(-1 -1.224647e-16 1.224647e-16 -1 499.9995 681.5158)" style="fill:#F0F0F0;" width="70.34" height="24.28"/>
					
						<rect x="214.829" y="352.898" transform="matrix(-1 -1.224647e-16 1.224647e-16 -1 499.9995 730.0763)" style="fill:#F0F0F0;" width="70.34" height="24.28"/>
					<g>
						<polygon style="fill:#FAFAFA;" points="230.633,352.898 221.881,328.618 235.35,328.618 244.102,352.898 						"/>
						<polygon style="fill:#FAFAFA;" points="215.362,328.618 218.321,328.618 227.073,352.898 224.114,352.898 						"/>
					</g>
					<g>
						<polygon style="fill:#FAFAFA;" points="239.385,377.178 230.633,352.898 244.102,352.898 252.854,377.178 						"/>
						<polygon style="fill:#FAFAFA;" points="224.114,352.898 227.073,352.898 235.825,377.178 232.866,377.178 						"/>
					</g>
					
						<rect x="248.772" y="295.953" transform="matrix(-1.836970e-16 1 -1 -1.836970e-16 581.1235 81.1239)" style="fill:#E0E0E0;" width="2.456" height="70.34"/>
					
						<rect x="248.771" y="320.044" transform="matrix(-1.836970e-16 1 -1 -1.836970e-16 605.2141 105.2146)" style="fill:#E0E0E0;" width="2.457" height="70.34"/>
					<g>
						<path style="fill:#E0E0E0;" d="M248.2,343.866c-0.583,0-1.055-0.472-1.055-1.055c0-0.583,0.472-1.055,1.055-1.055
							c0.295,0,3.303,0,3.599,0c0.583,0,1.055,0.472,1.055,1.055c0,0.583-0.472,1.055-1.055,1.055
							C251.48,343.866,248.519,343.866,248.2,343.866z"/>
						<path style="fill:#F5F5F5;" d="M248.2,343.494c-0.583,0-1.055-0.472-1.055-1.055c0-0.583,0.472-1.055,1.055-1.055
							c0.295,0,3.303,0,3.599,0c0.583,0,1.055,0.472,1.055,1.055c0,0.583-0.472,1.055-1.055,1.055
							C251.48,343.494,248.519,343.494,248.2,343.494z"/>
					</g>
					<g>
						<path style="fill:#E0E0E0;" d="M248.2,366.279c-0.583,0-1.055-0.472-1.055-1.055c0-0.583,0.472-1.055,1.055-1.055
							c0.295,0,3.303,0,3.599,0c0.583,0,1.055,0.472,1.055,1.055c0,0.583-0.472,1.055-1.055,1.055
							C251.48,366.279,248.519,366.279,248.2,366.279z"/>
						<path style="fill:#F5F5F5;" d="M248.2,365.907c-0.583,0-1.055-0.472-1.055-1.055c0-0.583,0.472-1.055,1.055-1.055
							c0.295,0,3.303,0,3.599,0c0.583,0,1.055,0.472,1.055,1.055c0,0.583-0.472,1.055-1.055,1.055
							C251.48,365.907,248.519,365.907,248.2,365.907z"/>
					</g>
					<path style="fill:#F5F5F5;" d="M213.601,327.53v50.709h1.228h1.228h67.884h1.228h1.228V327.53H213.601z M216.058,354.182
						h67.884v21.601h-67.884V354.182z M216.058,330.124h67.884v21.601h-67.884V330.124z"/>
				</g>
				<g>
					
						<rect x="142.033" y="328.618" transform="matrix(-1 -1.224647e-16 1.224647e-16 -1 354.4069 681.5158)" style="fill:#F0F0F0;" width="70.34" height="24.28"/>
					
						<rect x="142.033" y="352.898" transform="matrix(-1 -1.224647e-16 1.224647e-16 -1 354.4069 730.0763)" style="fill:#F0F0F0;" width="70.34" height="24.28"/>
					<g>
						<polygon style="fill:#FAFAFA;" points="167.831,352.898 159.079,328.618 172.548,328.618 181.3,352.898 						"/>
						<polygon style="fill:#FAFAFA;" points="152.56,328.618 155.519,328.618 164.271,352.898 161.312,352.898 						"/>
					</g>
					<g>
						<polygon style="fill:#FAFAFA;" points="176.582,377.178 167.831,352.898 181.3,352.898 190.052,377.178 						"/>
						<polygon style="fill:#FAFAFA;" points="161.312,352.898 164.271,352.898 173.022,377.178 170.064,377.178 						"/>
					</g>
					
						<rect x="175.975" y="295.953" transform="matrix(-1.836970e-16 1 -1 -1.836970e-16 508.3271 153.9203)" style="fill:#E0E0E0;" width="2.456" height="70.34"/>
					
						<rect x="175.975" y="320.044" transform="matrix(-1.836970e-16 1 -1 -1.836970e-16 532.4178 178.0109)" style="fill:#E0E0E0;" width="2.457" height="70.34"/>
					<g>
						<path style="fill:#E0E0E0;" d="M175.404,343.866c-0.583,0-1.055-0.472-1.055-1.055c0-0.583,0.472-1.055,1.055-1.055
							c0.295,0,3.303,0,3.599,0c0.583,0,1.055,0.472,1.055,1.055c0,0.583-0.472,1.055-1.055,1.055
							C178.684,343.866,175.723,343.866,175.404,343.866z"/>
						<path style="fill:#F5F5F5;" d="M175.404,343.494c-0.583,0-1.055-0.472-1.055-1.055c0-0.583,0.472-1.055,1.055-1.055
							c0.295,0,3.303,0,3.599,0c0.583,0,1.055,0.472,1.055,1.055c0,0.583-0.472,1.055-1.055,1.055
							C178.684,343.494,175.723,343.494,175.404,343.494z"/>
					</g>
					<g>
						<path style="fill:#E0E0E0;" d="M175.404,366.279c-0.583,0-1.055-0.472-1.055-1.055c0-0.583,0.472-1.055,1.055-1.055
							c0.295,0,3.303,0,3.599,0c0.583,0,1.055,0.472,1.055,1.055c0,0.583-0.472,1.055-1.055,1.055
							C178.684,366.279,175.723,366.279,175.404,366.279z"/>
						<path style="fill:#F5F5F5;" d="M175.404,365.907c-0.583,0-1.055-0.472-1.055-1.055c0-0.583,0.472-1.055,1.055-1.055
							c0.295,0,3.303,0,3.599,0c0.583,0,1.055,0.472,1.055,1.055c0,0.583-0.472,1.055-1.055,1.055
							C178.684,365.907,175.723,365.907,175.404,365.907z"/>
					</g>
					<path style="fill:#F5F5F5;" d="M140.805,327.53v50.709h1.228h1.228h67.884h1.228h1.228V327.53H140.805z M143.261,354.182
						h67.884v21.601h-67.884V354.182z M143.261,330.124h67.884v21.601h-67.884V330.124z"/>
				</g>
			</g>
			<polygon style="fill:#E6E6E6;" points="147.843,381.892 352.157,381.892 353.22,378.239 146.779,378.239 			"/>
		</g>
		<g>
			<g>
				<path style="fill:#EBEBEB;" d="M80.801,274.236c-1.609,1.009-3.731,0.524-4.741-1.085s-0.524-3.731,1.085-4.741
					c1.435-0.901,3.277-0.608,4.375,0.607c-0.788-8.846-8.203-10.155-15.348-9.283c0.246,0.171,0.474,0.375,0.66,0.632
					c0.884,1.22,0.612,2.925-0.607,3.809c-1.22,0.884-2.925,0.612-3.809-0.607c-0.709-0.978-0.663-2.262,0.007-3.191
					c-5.463,1.182-9.964,3.146-9.964,3.146c0.681,2.263,1.383,4.31,2.1,6.161c1.32-0.731,3.004-0.393,3.913,0.86
					c0.982,1.355,0.68,3.25-0.675,4.232c-0.245,0.177-0.51,0.299-0.782,0.394c1.612,3.099,3.269,5.376,4.92,7
					c-0.058-0.997,0.371-2.002,1.24-2.632c1.355-0.982,3.25-0.68,4.232,0.675c0.982,1.355,0.68,3.25-0.675,4.232
					c-0.291,0.211-0.609,0.351-0.935,0.446c7.563,3.38,14.066-4.374,14.066-4.374c0.763-2.518,1.251-4.749,1.508-6.729
					C81.201,273.953,81.011,274.104,80.801,274.236z"/>
				<g>
					<path style="fill:#F5F5F5;" d="M94.608,297.544c-8.921-13.88-23.187-25.133-37.661-32.606c-0.76-0.393-1.295,0.825-0.536,1.217
						c14.264,7.365,28.33,18.492,37.12,32.17C93.994,299.044,95.069,298.262,94.608,297.544L94.608,297.544z"/>
				</g>
			</g>
			<g>
				<path style="fill:#E0E0E0;" d="M101.274,254.687c-3.207-0.215-5.632-2.989-5.417-6.195c0.215-3.206,2.988-5.632,6.195-5.417
					c2.861,0.192,5.094,2.422,5.391,5.177c7.707-12.903-1.152-22.061-11.807-27.962c0.168,0.479,0.277,0.985,0.277,1.521
					c0,2.549-2.066,4.616-4.616,4.616c-2.549,0-4.616-2.066-4.616-4.616c0-2.044,1.338-3.758,3.179-4.365
					c-8.659-3.807-16.776-5.586-16.776-5.586c-1.315,3.777-2.386,7.278-3.242,10.526c2.535,0.31,4.506,2.446,4.506,5.065
					c0,2.832-2.296,5.128-5.128,5.128c-0.511,0-0.996-0.098-1.462-0.237c-0.869,5.846-0.861,10.613-0.212,14.478
					c0.911-1.424,2.497-2.374,4.313-2.374c2.832,0,5.128,2.296,5.128,5.128c0,2.832-2.296,5.128-5.128,5.128
					c-0.608,0-1.183-0.124-1.724-0.319c7.004,12.143,23.615,7.978,23.615,7.978c3.547-2.692,6.43-5.264,8.749-7.721
					C102.102,254.696,101.692,254.715,101.274,254.687z"/>
				<g>
					<path style="fill:#F5F5F5;" d="M97.038,300.333c1.565-27.877-6.803-57.463-19.211-82.078c-0.652-1.293-2.594-0.155-1.943,1.136
						c12.227,24.258,20.445,53.472,18.903,80.942C94.707,301.779,96.957,301.775,97.038,300.333L97.038,300.333z"/>
				</g>
			</g>
			<g>
				<path style="fill:#F0F0F0;" d="M71.861,324.974c0-8.513,13.346-4.979,16.71-18.186c1.275-5.005-9.58-16.332-9.58-16.332h33.845
					c0,0-10.855,11.327-9.58,16.332c3.364,13.207,16.71,9.673,16.71,18.186c0,9.376-18.827,28.903-19.734,50.882
					c-0.081,1.965,3.541,6.037,3.541,6.037H88.054c0,0,3.622-4.072,3.541-6.037C90.687,353.877,71.861,334.35,71.861,324.974z"/>
				<path style="fill:#E6E6E6;" d="M82.089,347.098c-1.967-4.138,2.101-18.205,2.101-18.205H69.523c0,0,4.068,14.068,2.101,18.205
					c-1.389,2.921-4.548,4.786-4.548,8.242v20.772c0,5.379,4.401,5.781,9.781,5.781s9.781-0.401,9.781-5.781V355.34
					C86.637,351.883,83.478,350.019,82.089,347.098z"/>
			</g>
		</g>
		<g>
			<path style="fill:#E0E0E0;" d="M415.211,181.208v-19.475h-1.5v19.475c-0.965,0.317-1.667,1.215-1.667,2.286v6.167
				c0,1.335,1.082,2.417,2.417,2.417l0,0c1.335,0,2.417-1.082,2.417-2.417v-6.167C416.878,182.423,416.176,181.525,415.211,181.208z
				"/>
			<rect x="419.539" y="161.733" style="fill:#EBEBEB;" width="2.988" height="219.258"/>
			<path style="fill:#E0E0E0;" d="M440.533,381.892h-39l0,0c0-2.015,1.634-3.648,3.648-3.648h31.703
				C438.9,378.244,440.533,379.877,440.533,381.892L440.533,381.892z"/>
			<polygon style="fill:#E0E0E0;" points="419.539,177.239 422.527,176.256 422.527,161.733 419.539,161.733 			"/>
			<polygon style="fill:#F0F0F0;" points="438.933,116.244 403.133,116.244 392.133,163.744 449.933,163.744 			"/>
		</g>
	</g>
</g>
<g id="Background_Simple" style="display:none;">
	<g style="display:inline;">
		<path style="fill:#407BFF;" d="M299.556,267.714c-27.116,15.933-12.453,85.158-54.655,113.309
			c-50.814,33.896-130.253,5.596-156.848-47.52c-36.081-72.062-15.814-144.904,32.91-169.968
			c34.806-17.905,77.439,9.793,98.149-2.132c33.611-19.354,35.195-56.003,81.496-73.657c45.254-17.254,116.381,6.758,133.346,68.749
			c13.677,49.976-10.861,97.955-49.833,116.204C349.594,288.867,317.815,256.986,299.556,267.714z"/>
		<path style="opacity:0.9;fill:#FFFFFF;" d="M299.556,267.714c-27.116,15.933-12.453,85.158-54.655,113.309
			c-50.814,33.896-130.253,5.596-156.848-47.52c-36.081-72.062-15.814-144.904,32.91-169.968
			c34.806-17.905,77.439,9.793,98.149-2.132c33.611-19.354,35.195-56.003,81.496-73.657c45.254-17.254,116.381,6.758,133.346,68.749
			c13.677,49.976-10.861,97.955-49.833,116.204C349.594,288.867,317.815,256.986,299.556,267.714z"/>
	</g>
</g>
<g id="Shadow">
	<ellipse id="_x3C_Path_x3E__1_" style="fill:#F5F5F5;" cx="245.178" cy="412.391" rx="193.889" ry="11.323"/>
</g>
<g id="Screen">
	<g>
		<g>
			<path style="fill:#407BFF;" d="M362.26,314.156H80.854c-2.557,0-4.63-2.073-4.63-4.63V116.119c0-2.557,2.073-4.63,4.63-4.63
				H362.26c2.557,0,4.63,2.073,4.63,4.63v193.406C366.891,312.083,364.818,314.156,362.26,314.156z"/>
			<path style="opacity:0.8;fill:#FFFFFF;" d="M362.26,314.156H80.854c-2.557,0-4.63-2.073-4.63-4.63V116.119
				c0-2.557,2.073-4.63,4.63-4.63H362.26c2.557,0,4.63,2.073,4.63,4.63v193.406C366.891,312.083,364.818,314.156,362.26,314.156z"/>
		</g>
		<path style="fill:#407BFF;" d="M347.508,307.823H188.94c-2.236,0-4.049-1.813-4.049-4.049v-93.234
			c0-2.236,1.813-4.049,4.049-4.049h158.568c2.236,0,4.049,1.813,4.049,4.049v93.234
			C351.557,306.009,349.744,307.823,347.508,307.823z"/>
		<path style="opacity:0.9;fill:#FFFFFF;" d="M347.508,307.823H188.94c-2.236,0-4.049-1.813-4.049-4.049v-93.234
			c0-2.236,1.813-4.049,4.049-4.049h158.568c2.236,0,4.049,1.813,4.049,4.049v93.234
			C351.557,306.009,349.744,307.823,347.508,307.823z"/>
		<g>
			<g>
				<path style="fill:#407BFF;" d="M345.061,200.156H98.033c-3.588,0-6.496-2.908-6.496-6.496v-34.674
					c0-3.588,2.908-6.496,6.496-6.496h247.029c3.588,0,6.496,2.908,6.496,6.496v34.674
					C351.557,197.247,348.649,200.156,345.061,200.156z"/>
				<path style="opacity:0.9;fill:#FFFFFF;" d="M345.061,200.156H98.033c-3.588,0-6.496-2.908-6.496-6.496v-34.674
					c0-3.588,2.908-6.496,6.496-6.496h247.029c3.588,0,6.496,2.908,6.496,6.496v34.674
					C351.557,197.247,348.649,200.156,345.061,200.156z"/>
			</g>
			<g>
				<path style="fill:#407BFF;" d="M362.26,111.489H80.854c-2.557,0-4.63,2.073-4.63,4.63v30.036h290.667v-30.036
					C366.891,113.562,364.818,111.489,362.26,111.489z"/>
				<path style="opacity:0.4;fill:#FFFFFF;" d="M362.26,111.489H80.854c-2.557,0-4.63,2.073-4.63,4.63v30.036h290.667v-30.036
					C366.891,113.562,364.818,111.489,362.26,111.489z"/>
			</g>
			<path style="fill:#407BFF;" d="M362.26,111.489H80.854c-2.557,0-4.63,2.073-4.63,4.63v9.203h290.667v-9.203
				C366.891,113.562,364.818,111.489,362.26,111.489z"/>
			<path style="opacity:0.8;fill:#FFFFFF;" d="M88.516,118.406c0,1.634-1.325,2.958-2.958,2.958c-1.634,0-2.958-1.324-2.958-2.958
				c0-1.634,1.325-2.958,2.958-2.958C87.191,115.448,88.516,116.772,88.516,118.406z"/>
			<path style="opacity:0.6;fill:#FFFFFF;" d="M97.516,118.406c0,1.634-1.325,2.958-2.958,2.958c-1.634,0-2.958-1.324-2.958-2.958
				c0-1.634,1.325-2.958,2.958-2.958C96.191,115.448,97.516,116.772,97.516,118.406z"/>
			<path style="opacity:0.4;fill:#FFFFFF;" d="M106.516,118.406c0,1.634-1.325,2.958-2.958,2.958c-1.634,0-2.958-1.324-2.958-2.958
				c0-1.634,1.325-2.958,2.958-2.958C105.191,115.448,106.516,116.772,106.516,118.406z"/>
			<path style="fill:#FFFFFF;" d="M334.557,129.628c-2.061,0-115.178,0-117.239,0c-2.882,0-5.219,2.337-5.219,5.219
				c0,2.882,2.337,5.219,5.219,5.219c2.061,0,115.178,0,117.239,0c2.882,0,5.219-2.337,5.219-5.219
				C339.776,131.964,337.44,129.628,334.557,129.628z"/>
			<g>
				<path style="fill:#263238;" d="M225.355,231.718c-0.672,0-32.174,0-32.846,0c-0.94,0-1.702,0.762-1.702,1.702
					c0,0.94,0.762,1.702,1.702,1.702c0.672,0,32.174,0,32.846,0c0.94,0,1.702-0.762,1.702-1.702
					C227.057,232.48,226.295,231.718,225.355,231.718z"/>
				<path style="fill:#263238;" d="M282.605,231.718c-0.672,0-49.174,0-49.846,0c-0.94,0-1.702,0.762-1.702,1.702
					c0,0.94,0.762,1.702,1.702,1.702c0.672,0,49.174,0,49.846,0c0.94,0,1.702-0.762,1.702-1.702
					C284.307,232.48,283.545,231.718,282.605,231.718z"/>
				<path style="fill:#263238;" d="M338.855,231.718c-0.672,0-48.173,0-48.846,0c-0.94,0-1.702,0.762-1.702,1.702
					c0,0.94,0.762,1.702,1.702,1.702c0.672,0,48.174,0,48.846,0c0.94,0,1.702-0.762,1.702-1.702
					C340.557,232.48,339.795,231.718,338.855,231.718z"/>
				<path style="fill:#263238;" d="M228.355,241.87c-0.672,0-35.174,0-35.846,0c-0.94,0-1.702,0.762-1.702,1.702
					c0,0.94,0.762,1.702,1.702,1.702c0.672,0,35.174,0,35.846,0c0.94,0,1.702-0.762,1.702-1.702
					C230.057,242.632,229.295,241.87,228.355,241.87z"/>
				<path style="fill:#263238;" d="M273.605,241.87c-0.672,0-37.174,0-37.846,0c-0.94,0-1.702,0.762-1.702,1.702
					c0,0.94,0.762,1.702,1.702,1.702c0.672,0,37.174,0,37.846,0c0.94,0,1.702-0.762,1.702-1.702
					C275.307,242.632,274.545,241.87,273.605,241.87z"/>
				<path style="fill:#263238;" d="M327.855,241.87c-0.672,0-46.173,0-46.846,0c-0.94,0-1.702,0.762-1.702,1.702
					c0,0.94,0.762,1.702,1.702,1.702c0.672,0,46.174,0,46.846,0c0.94,0,1.702-0.762,1.702-1.702
					C329.557,242.632,328.795,241.87,327.855,241.87z"/>
				<path style="fill:#263238;" d="M236.355,252.022c-0.672,0-43.174,0-43.846,0c-0.94,0-1.702,0.762-1.702,1.702
					c0,0.94,0.762,1.702,1.702,1.702c0.672,0,43.174,0,43.846,0c0.94,0,1.702-0.762,1.702-1.702
					C238.057,252.784,237.295,252.022,236.355,252.022z"/>
				<path style="fill:#263238;" d="M287.605,252.022c-0.672,0-43.174,0-43.846,0c-0.94,0-1.702,0.762-1.702,1.702
					c0,0.94,0.762,1.702,1.702,1.702c0.672,0,43.174,0,43.846,0c0.94,0,1.702-0.762,1.702-1.702
					C289.307,252.784,288.545,252.022,287.605,252.022z"/>
				<path style="fill:#263238;" d="M328.855,252.022c-0.672,0-33.173,0-33.846,0c-0.94,0-1.702,0.762-1.702,1.702
					c0,0.94,0.762,1.702,1.702,1.702c0.672,0,33.174,0,33.846,0c0.94,0,1.702-0.762,1.702-1.702
					C330.557,252.784,329.795,252.022,328.855,252.022z"/>
				<path style="fill:#263238;" d="M236.355,262.174c-0.672,0-43.174,0-43.846,0c-0.94,0-1.702,0.762-1.702,1.702
					s0.762,1.702,1.702,1.702c0.672,0,43.174,0,43.846,0c0.94,0,1.702-0.762,1.702-1.702S237.295,262.174,236.355,262.174z"/>
				<path style="fill:#263238;" d="M268.605,262.174c-0.672,0-24.174,0-24.846,0c-0.94,0-1.702,0.762-1.702,1.702
					s0.762,1.702,1.702,1.702c0.672,0,24.174,0,24.846,0c0.94,0,1.702-0.762,1.702-1.702S269.545,262.174,268.605,262.174z"/>
				<path style="fill:#263238;" d="M321.855,262.174c-0.672,0-45.173,0-45.846,0c-0.94,0-1.702,0.762-1.702,1.702
					s0.762,1.702,1.702,1.702c0.672,0,45.174,0,45.846,0c0.94,0,1.702-0.762,1.702-1.702S322.795,262.174,321.855,262.174z"/>
				<path style="fill:#263238;" d="M252.355,272.326c-0.672,0-59.174,0-59.846,0c-0.94,0-1.702,0.762-1.702,1.702
					s0.762,1.702,1.702,1.702c0.672,0,59.174,0,59.846,0c0.94,0,1.702-0.762,1.702-1.702S253.295,272.326,252.355,272.326z"/>
				<path style="fill:#263238;" d="M287.605,272.326c-0.672,0-27.173,0-27.846,0c-0.94,0-1.702,0.762-1.702,1.702
					s0.762,1.702,1.702,1.702c0.672,0,27.174,0,27.846,0c0.94,0,1.702-0.762,1.702-1.702S288.545,272.326,287.605,272.326z"/>
				<path style="fill:#263238;" d="M315.855,272.326c-0.672,0-20.173,0-20.846,0c-0.94,0-1.702,0.762-1.702,1.702
					s0.762,1.702,1.702,1.702c0.672,0,20.174,0,20.846,0c0.94,0,1.702-0.762,1.702-1.702S316.795,272.326,315.855,272.326z"/>
				<path style="fill:#263238;" d="M236.355,282.478c-0.672,0-43.174,0-43.846,0c-0.94,0-1.702,0.762-1.702,1.702
					s0.762,1.702,1.702,1.702c0.672,0,43.174,0,43.846,0c0.94,0,1.702-0.762,1.702-1.702S237.295,282.478,236.355,282.478z"/>
				<path style="fill:#263238;" d="M287.605,282.478c-0.672,0-43.174,0-43.846,0c-0.94,0-1.702,0.762-1.702,1.702
					s0.762,1.702,1.702,1.702c0.672,0,43.174,0,43.846,0c0.94,0,1.702-0.762,1.702-1.702S288.545,282.478,287.605,282.478z"/>
				<path style="fill:#263238;" d="M327.855,282.478c-0.672,0-32.173,0-32.846,0c-0.94,0-1.702,0.762-1.702,1.702
					s0.762,1.702,1.702,1.702c0.672,0,32.174,0,32.846,0c0.94,0,1.702-0.762,1.702-1.702S328.795,282.478,327.855,282.478z"/>
				<path style="fill:#263238;" d="M227.355,292.63c-0.672,0-34.174,0-34.846,0c-0.94,0-1.702,0.762-1.702,1.702
					s0.762,1.702,1.702,1.702c0.672,0,34.174,0,34.846,0c0.94,0,1.702-0.762,1.702-1.702S228.295,292.63,227.355,292.63z"/>
				<path style="fill:#263238;" d="M287.605,292.63c-0.672,0-52.174,0-52.846,0c-0.94,0-1.702,0.762-1.702,1.702
					s0.762,1.702,1.702,1.702c0.672,0,52.174,0,52.846,0c0.94,0,1.702-0.762,1.702-1.702S288.545,292.63,287.605,292.63z"/>
				<path style="fill:#263238;" d="M313.855,292.63c-0.672,0-18.173,0-18.846,0c-0.94,0-1.702,0.762-1.702,1.702
					s0.762,1.702,1.702,1.702c0.672,0,18.174,0,18.846,0c0.94,0,1.702-0.762,1.702-1.702S314.795,292.63,313.855,292.63z"/>
				<path style="opacity:0.6;fill:#FFFFFF;" d="M225.355,231.718c-0.672,0-32.174,0-32.846,0c-0.94,0-1.702,0.762-1.702,1.702
					c0,0.94,0.762,1.702,1.702,1.702c0.672,0,32.174,0,32.846,0c0.94,0,1.702-0.762,1.702-1.702
					C227.057,232.48,226.295,231.718,225.355,231.718z"/>
				<path style="opacity:0.6;fill:#FFFFFF;" d="M282.605,231.718c-0.672,0-49.174,0-49.846,0c-0.94,0-1.702,0.762-1.702,1.702
					c0,0.94,0.762,1.702,1.702,1.702c0.672,0,49.174,0,49.846,0c0.94,0,1.702-0.762,1.702-1.702
					C284.307,232.48,283.545,231.718,282.605,231.718z"/>
				<path style="opacity:0.6;fill:#FFFFFF;" d="M338.855,231.718c-0.672,0-48.173,0-48.846,0c-0.94,0-1.702,0.762-1.702,1.702
					c0,0.94,0.762,1.702,1.702,1.702c0.672,0,48.174,0,48.846,0c0.94,0,1.702-0.762,1.702-1.702
					C340.557,232.48,339.795,231.718,338.855,231.718z"/>
				<path style="opacity:0.6;fill:#FFFFFF;" d="M228.355,241.87c-0.672,0-35.174,0-35.846,0c-0.94,0-1.702,0.762-1.702,1.702
					c0,0.94,0.762,1.702,1.702,1.702c0.672,0,35.174,0,35.846,0c0.94,0,1.702-0.762,1.702-1.702
					C230.057,242.632,229.295,241.87,228.355,241.87z"/>
				<path style="opacity:0.6;fill:#FFFFFF;" d="M273.605,241.87c-0.672,0-37.174,0-37.846,0c-0.94,0-1.702,0.762-1.702,1.702
					c0,0.94,0.762,1.702,1.702,1.702c0.672,0,37.174,0,37.846,0c0.94,0,1.702-0.762,1.702-1.702
					C275.307,242.632,274.545,241.87,273.605,241.87z"/>
				<path style="opacity:0.6;fill:#FFFFFF;" d="M327.855,241.87c-0.672,0-46.173,0-46.846,0c-0.94,0-1.702,0.762-1.702,1.702
					c0,0.94,0.762,1.702,1.702,1.702c0.672,0,46.174,0,46.846,0c0.94,0,1.702-0.762,1.702-1.702
					C329.557,242.632,328.795,241.87,327.855,241.87z"/>
				<path style="opacity:0.6;fill:#FFFFFF;" d="M236.355,252.022c-0.672,0-43.174,0-43.846,0c-0.94,0-1.702,0.762-1.702,1.702
					c0,0.94,0.762,1.702,1.702,1.702c0.672,0,43.174,0,43.846,0c0.94,0,1.702-0.762,1.702-1.702
					C238.057,252.784,237.295,252.022,236.355,252.022z"/>
				<path style="opacity:0.6;fill:#FFFFFF;" d="M287.605,252.022c-0.672,0-43.174,0-43.846,0c-0.94,0-1.702,0.762-1.702,1.702
					c0,0.94,0.762,1.702,1.702,1.702c0.672,0,43.174,0,43.846,0c0.94,0,1.702-0.762,1.702-1.702
					C289.307,252.784,288.545,252.022,287.605,252.022z"/>
				<path style="opacity:0.6;fill:#FFFFFF;" d="M328.855,252.022c-0.672,0-33.173,0-33.846,0c-0.94,0-1.702,0.762-1.702,1.702
					c0,0.94,0.762,1.702,1.702,1.702c0.672,0,33.174,0,33.846,0c0.94,0,1.702-0.762,1.702-1.702
					C330.557,252.784,329.795,252.022,328.855,252.022z"/>
				<path style="opacity:0.6;fill:#FFFFFF;" d="M236.355,262.174c-0.672,0-43.174,0-43.846,0c-0.94,0-1.702,0.762-1.702,1.702
					s0.762,1.702,1.702,1.702c0.672,0,43.174,0,43.846,0c0.94,0,1.702-0.762,1.702-1.702S237.295,262.174,236.355,262.174z"/>
				<path style="opacity:0.6;fill:#FFFFFF;" d="M268.605,262.174c-0.672,0-24.174,0-24.846,0c-0.94,0-1.702,0.762-1.702,1.702
					s0.762,1.702,1.702,1.702c0.672,0,24.174,0,24.846,0c0.94,0,1.702-0.762,1.702-1.702S269.545,262.174,268.605,262.174z"/>
				<path style="opacity:0.6;fill:#FFFFFF;" d="M321.855,262.174c-0.672,0-45.173,0-45.846,0c-0.94,0-1.702,0.762-1.702,1.702
					s0.762,1.702,1.702,1.702c0.672,0,45.174,0,45.846,0c0.94,0,1.702-0.762,1.702-1.702S322.795,262.174,321.855,262.174z"/>
				<path style="opacity:0.6;fill:#FFFFFF;" d="M252.355,272.326c-0.672,0-59.174,0-59.846,0c-0.94,0-1.702,0.762-1.702,1.702
					s0.762,1.702,1.702,1.702c0.672,0,59.174,0,59.846,0c0.94,0,1.702-0.762,1.702-1.702S253.295,272.326,252.355,272.326z"/>
				<path style="opacity:0.6;fill:#FFFFFF;" d="M287.605,272.326c-0.672,0-27.173,0-27.846,0c-0.94,0-1.702,0.762-1.702,1.702
					s0.762,1.702,1.702,1.702c0.672,0,27.174,0,27.846,0c0.94,0,1.702-0.762,1.702-1.702S288.545,272.326,287.605,272.326z"/>
				<path style="opacity:0.6;fill:#FFFFFF;" d="M315.855,272.326c-0.672,0-20.173,0-20.846,0c-0.94,0-1.702,0.762-1.702,1.702
					s0.762,1.702,1.702,1.702c0.672,0,20.174,0,20.846,0c0.94,0,1.702-0.762,1.702-1.702S316.795,272.326,315.855,272.326z"/>
				<path style="opacity:0.6;fill:#FFFFFF;" d="M236.355,282.478c-0.672,0-43.174,0-43.846,0c-0.94,0-1.702,0.762-1.702,1.702
					s0.762,1.702,1.702,1.702c0.672,0,43.174,0,43.846,0c0.94,0,1.702-0.762,1.702-1.702S237.295,282.478,236.355,282.478z"/>
				<path style="opacity:0.6;fill:#FFFFFF;" d="M287.605,282.478c-0.672,0-43.174,0-43.846,0c-0.94,0-1.702,0.762-1.702,1.702
					s0.762,1.702,1.702,1.702c0.672,0,43.174,0,43.846,0c0.94,0,1.702-0.762,1.702-1.702S288.545,282.478,287.605,282.478z"/>
				<path style="opacity:0.6;fill:#FFFFFF;" d="M327.855,282.478c-0.672,0-32.173,0-32.846,0c-0.94,0-1.702,0.762-1.702,1.702
					s0.762,1.702,1.702,1.702c0.672,0,32.174,0,32.846,0c0.94,0,1.702-0.762,1.702-1.702S328.795,282.478,327.855,282.478z"/>
				<path style="opacity:0.6;fill:#FFFFFF;" d="M227.355,292.63c-0.672,0-34.174,0-34.846,0c-0.94,0-1.702,0.762-1.702,1.702
					s0.762,1.702,1.702,1.702c0.672,0,34.174,0,34.846,0c0.94,0,1.702-0.762,1.702-1.702S228.295,292.63,227.355,292.63z"/>
				<path style="opacity:0.6;fill:#FFFFFF;" d="M287.605,292.63c-0.672,0-52.174,0-52.846,0c-0.94,0-1.702,0.762-1.702,1.702
					s0.762,1.702,1.702,1.702c0.672,0,52.174,0,52.846,0c0.94,0,1.702-0.762,1.702-1.702S288.545,292.63,287.605,292.63z"/>
				<path style="opacity:0.6;fill:#FFFFFF;" d="M313.855,292.63c-0.672,0-18.173,0-18.846,0c-0.94,0-1.702,0.762-1.702,1.702
					s0.762,1.702,1.702,1.702c0.672,0,18.174,0,18.846,0c0.94,0,1.702-0.762,1.702-1.702S314.795,292.63,313.855,292.63z"/>
			</g>
			<g>
				<g>
					<path style="fill:#263238;" d="M159.057,269.718c-0.942,0-60.506,0-61.448,0c-1.317,0-2.385,1.068-2.385,2.386
						c0,1.318,1.068,2.385,2.385,2.385c0.942,0,60.506,0,61.448,0c1.318,0,2.386-1.068,2.386-2.385
						C161.443,270.786,160.375,269.718,159.057,269.718z"/>
					<path style="fill:#263238;" d="M150.557,279.718c-0.942,0-52.006,0-52.948,0c-1.317,0-2.385,1.068-2.385,2.386
						c0,1.318,1.068,2.385,2.385,2.385c0.942,0,52.006,0,52.948,0c1.318,0,2.386-1.068,2.386-2.385
						C152.943,280.786,151.875,279.718,150.557,279.718z"/>
					<path style="fill:#263238;" d="M155.807,289.718c-0.942,0-57.256,0-58.198,0c-1.317,0-2.385,1.068-2.385,2.386
						c0,1.318,1.068,2.385,2.385,2.385c0.942,0,57.256,0,58.198,0c1.318,0,2.386-1.068,2.386-2.385
						C158.193,290.786,157.125,289.718,155.807,289.718z"/>
					<path style="fill:#263238;" d="M147.307,299.718c-0.942,0-48.756,0-49.698,0c-1.317,0-2.385,1.068-2.385,2.386
						c0,1.318,1.068,2.385,2.385,2.385c0.942,0,48.756,0,49.698,0c1.318,0,2.386-1.068,2.386-2.385
						C149.693,300.786,148.625,299.718,147.307,299.718z"/>
				</g>
				<g style="opacity:0.4;">
					<path style="fill:#FFFFFF;" d="M159.057,269.718c-0.942,0-60.506,0-61.448,0c-1.317,0-2.385,1.068-2.385,2.386
						c0,1.318,1.068,2.385,2.385,2.385c0.942,0,60.506,0,61.448,0c1.318,0,2.386-1.068,2.386-2.385
						C161.443,270.786,160.375,269.718,159.057,269.718z"/>
					<path style="fill:#FFFFFF;" d="M150.557,279.718c-0.942,0-52.006,0-52.948,0c-1.317,0-2.385,1.068-2.385,2.386
						c0,1.318,1.068,2.385,2.385,2.385c0.942,0,52.006,0,52.948,0c1.318,0,2.386-1.068,2.386-2.385
						C152.943,280.786,151.875,279.718,150.557,279.718z"/>
					<path style="fill:#FFFFFF;" d="M155.807,289.718c-0.942,0-57.256,0-58.198,0c-1.317,0-2.385,1.068-2.385,2.386
						c0,1.318,1.068,2.385,2.385,2.385c0.942,0,57.256,0,58.198,0c1.318,0,2.386-1.068,2.386-2.385
						C158.193,290.786,157.125,289.718,155.807,289.718z"/>
					<path style="fill:#FFFFFF;" d="M147.307,299.718c-0.942,0-48.756,0-49.698,0c-1.317,0-2.385,1.068-2.385,2.386
						c0,1.318,1.068,2.385,2.385,2.385c0.942,0,48.756,0,49.698,0c1.318,0,2.386-1.068,2.386-2.385
						C149.693,300.786,148.625,299.718,147.307,299.718z"/>
				</g>
			</g>
			<g>
				<path style="fill:#FFFFFF;" d="M347.907,132.43c0.44,0,6.86,0,7.3,0c0.654,0,1.183-0.53,1.183-1.183
					c0-0.654-0.53-1.183-1.183-1.183c-0.494,0-6.806,0-7.3,0c-0.654,0-1.183,0.53-1.183,1.183
					C346.724,131.9,347.254,132.43,347.907,132.43z"/>
				<path style="fill:#FFFFFF;" d="M355.207,133.663c-0.467,0-6.833,0-7.3,0c-0.654,0-1.183,0.53-1.183,1.183
					c0,0.654,0.53,1.183,1.183,1.183c0.467,0,6.833,0,7.3,0c0.654,0,1.183-0.53,1.183-1.183
					C356.391,134.193,355.861,133.663,355.207,133.663z"/>
				<path style="fill:#FFFFFF;" d="M355.207,137.263c-0.44,0-6.86,0-7.3,0c-0.654,0-1.183,0.53-1.183,1.183
					c0,0.653,0.53,1.183,1.183,1.183c0.494,0,6.806,0,7.3,0c0.654,0,1.183-0.53,1.183-1.183
					C356.391,137.793,355.861,137.263,355.207,137.263z"/>
			</g>
			<path style="opacity:0.5;fill:#263238;" d="M94.457,140.826h-5.841c-1.689,0-3.059-1.369-3.059-3.059v-5.841
				c0-1.689,1.369-3.059,3.059-3.059h5.841c1.689,0,3.059,1.369,3.059,3.059v5.841C97.516,139.456,96.146,140.826,94.457,140.826z"
				/>
			<path style="fill:#407BFF;" d="M224.405,222.489h-30.369c-1.783,0-3.228-1.445-3.228-3.228v-5.878
				c0-1.783,1.445-3.228,3.228-3.228h30.369c1.783,0,3.228,1.445,3.228,3.228v5.878
				C227.633,221.044,226.187,222.489,224.405,222.489z"/>
			<g>
				<path style="fill:#407BFF;" d="M263.741,222.489h-30.369c-1.783,0-3.228-1.445-3.228-3.228v-5.878
					c0-1.783,1.445-3.228,3.228-3.228h30.369c1.783,0,3.228,1.445,3.228,3.228v5.878
					C266.969,221.044,265.523,222.489,263.741,222.489z"/>
				<path style="opacity:0.7;fill:#FFFFFF;" d="M263.741,222.489h-30.369c-1.783,0-3.228-1.445-3.228-3.228v-5.878
					c0-1.783,1.445-3.228,3.228-3.228h30.369c1.783,0,3.228,1.445,3.228,3.228v5.878
					C266.969,221.044,265.523,222.489,263.741,222.489z"/>
			</g>
			<g>
				<path style="fill:#407BFF;" d="M303.077,222.489h-30.37c-1.783,0-3.228-1.445-3.228-3.228v-5.878
					c0-1.783,1.445-3.228,3.228-3.228h30.37c1.783,0,3.228,1.445,3.228,3.228v5.878
					C306.305,221.044,304.859,222.489,303.077,222.489z"/>
				<path style="opacity:0.7;fill:#FFFFFF;" d="M303.077,222.489h-30.37c-1.783,0-3.228-1.445-3.228-3.228v-5.878
					c0-1.783,1.445-3.228,3.228-3.228h30.37c1.783,0,3.228,1.445,3.228,3.228v5.878
					C306.305,221.044,304.859,222.489,303.077,222.489z"/>
			</g>
			<g>
				<path style="fill:#407BFF;" d="M342.413,222.489h-30.369c-1.783,0-3.228-1.445-3.228-3.228v-5.878
					c0-1.783,1.445-3.228,3.228-3.228h30.369c1.783,0,3.228,1.445,3.228,3.228v5.878
					C345.641,221.044,344.195,222.489,342.413,222.489z"/>
				<path style="opacity:0.7;fill:#FFFFFF;" d="M342.413,222.489h-30.369c-1.783,0-3.228-1.445-3.228-3.228v-5.878
					c0-1.783,1.445-3.228,3.228-3.228h30.369c1.783,0,3.228,1.445,3.228,3.228v5.878
					C345.641,221.044,344.195,222.489,342.413,222.489z"/>
			</g>
			<path style="fill:#407BFF;" d="M168.339,264.489H97.776c-1.41,0-2.552-1.143-2.552-2.552v-9.896c0-1.41,1.143-2.552,2.552-2.552
				h70.562c1.41,0,2.552,1.143,2.552,2.552v9.896C170.891,263.347,169.748,264.489,168.339,264.489z"/>
			<g>
				<polygon style="fill:#407BFF;" points="181.017,180.282 161.143,200.156 200.891,200.156 				"/>
				<polygon style="opacity:0.4;fill:#FFFFFF;" points="181.017,180.282 161.143,200.156 200.891,200.156 				"/>
			</g>
			<g>
				<polygon style="fill:#407BFF;" points="227.057,160.822 187.724,200.156 266.391,200.156 				"/>
				<polygon style="opacity:0.2;fill:#FFFFFF;" points="227.057,160.822 187.724,200.156 266.391,200.156 				"/>
			</g>
			<polygon style="fill:#407BFF;" points="266.969,184.3 251.113,200.156 282.824,200.156 			"/>
			<g>
				<polygon style="fill:#407BFF;" points="293.307,184.3 277.452,200.156 309.163,200.156 				"/>
				<polygon style="opacity:0.4;fill:#FFFFFF;" points="293.307,184.3 277.452,200.156 309.163,200.156 				"/>
			</g>
			<g>
				<path style="fill:#407BFF;" d="M291.034,200.156h54.027c1.083,0,2.102-0.269,3-0.737l-28.145-28.145L291.034,200.156z"/>
				<path style="opacity:0.6;fill:#FFFFFF;" d="M291.034,200.156h54.027c1.083,0,2.102-0.269,3-0.737l-28.145-28.145
					L291.034,200.156z"/>
			</g>
			<g>
				<path style="fill:#263238;" d="M162.172,236.489h-58.229c-4.815,0-8.719-3.904-8.719-8.719v-58.229
					c0-4.815,3.904-8.719,8.719-8.719h58.229c4.815,0,8.719,3.904,8.719,8.719v58.229
					C170.891,232.586,166.987,236.489,162.172,236.489z"/>
				<path style="opacity:0.8;fill:#FFFFFF;" d="M162.172,236.489h-58.229c-4.815,0-8.719-3.904-8.719-8.719v-58.229
					c0-4.815,3.904-8.719,8.719-8.719h58.229c4.815,0,8.719,3.904,8.719,8.719v58.229
					C170.891,232.586,166.987,236.489,162.172,236.489z"/>
			</g>
			<g>
				<path style="fill:#407BFF;" d="M262.691,176.026c0,0,27.814,3.139,25.042-4.707c-2.131-6.03-8.012-1.058-8.012-1.058
					s-1.023-4.802-5.589-4.326c-4.566,0.475-4.342,6.142-4.342,6.142S262.521,170.261,262.691,176.026z"/>
				<path style="opacity:0.7;fill:#FFFFFF;" d="M262.691,176.026c0,0,27.814,3.139,25.042-4.707
					c-2.131-6.03-8.012-1.058-8.012-1.058s-1.023-4.802-5.589-4.326c-4.566,0.475-4.342,6.142-4.342,6.142
					S262.521,170.261,262.691,176.026z"/>
			</g>
			<g>
				<path style="fill:#407BFF;" d="M289.696,167.279c0,0,20.614,2.327,18.56-3.489c-1.579-4.469-5.938-0.784-5.938-0.784
					s-0.758-3.559-4.142-3.207c-3.384,0.352-3.218,4.552-3.218,4.552S289.57,163.007,289.696,167.279z"/>
				<path style="opacity:0.8;fill:#FFFFFF;" d="M289.696,167.279c0,0,20.614,2.327,18.56-3.489
					c-1.579-4.469-5.938-0.784-5.938-0.784s-0.758-3.559-4.142-3.207c-3.384,0.352-3.218,4.552-3.218,4.552
					S289.57,163.007,289.696,167.279z"/>
			</g>
			<g>
				<path style="fill:#407BFF;" d="M185.67,169.653c0,0,29.631,2.172,31.971-4.875c2.225-6.7-6.763-7.345-7.583-1.949
					c0,0-0.41-6.479-5.943-6.358c-5.411,0.118-6.148,6.358-6.148,6.358s-0.598-2.578-3.894-2.292c-3.576,0.31-3.894,5.06-3.894,5.06
					S185.465,165.342,185.67,169.653z"/>
				<path style="opacity:0.8;fill:#FFFFFF;" d="M185.67,169.653c0,0,29.631,2.172,31.971-4.875c2.225-6.7-6.763-7.345-7.583-1.949
					c0,0-0.41-6.479-5.943-6.358c-5.411,0.118-6.148,6.358-6.148,6.358s-0.598-2.578-3.894-2.292c-3.576,0.31-3.894,5.06-3.894,5.06
					S185.465,165.342,185.67,169.653z"/>
			</g>
			<path style="fill:#263238;" d="M133.376,156.607c0,0,3.425-3.213,4.78,1.068C138.156,157.675,136.408,156.003,133.376,156.607z"
				/>
			<g>
				<path style="fill:#FFFFFF;" d="M111.778,258.846h-3.017l-0.576,1.392h-1.541l2.896-6.498h1.485l2.905,6.498h-1.578
					L111.778,258.846z M111.305,257.704l-1.03-2.488l-1.03,2.488H111.305z"/>
				<path style="fill:#FFFFFF;" d="M120.253,257.448c0.21,0.276,0.316,0.615,0.316,1.017c0,0.57-0.221,1.007-0.664,1.314
					c-0.442,0.306-1.088,0.459-1.935,0.459h-3.36v-6.498h3.175c0.792,0,1.4,0.152,1.824,0.456c0.424,0.303,0.636,0.715,0.636,1.234
					c0,0.316-0.076,0.597-0.227,0.845c-0.151,0.248-0.363,0.443-0.636,0.585C119.752,256.977,120.043,257.173,120.253,257.448z
					 M116.104,254.873v1.531h1.494c0.371,0,0.653-0.065,0.845-0.195c0.191-0.13,0.288-0.322,0.288-0.576
					c0-0.254-0.096-0.444-0.288-0.571c-0.192-0.126-0.474-0.19-0.845-0.19H116.104z M118.754,258.911
					c0.201-0.13,0.302-0.331,0.302-0.604c0-0.539-0.399-0.808-1.198-0.808h-1.754v1.606h1.754
					C118.254,259.106,118.553,259.041,118.754,258.911z"/>
				<path style="fill:#FFFFFF;" d="M123.034,259.913c-0.542-0.291-0.965-0.692-1.272-1.202c-0.306-0.511-0.46-1.085-0.46-1.722
					c0-0.637,0.153-1.211,0.46-1.722c0.306-0.511,0.73-0.911,1.272-1.203c0.541-0.29,1.149-0.436,1.824-0.436
					s1.281,0.146,1.819,0.436c0.538,0.292,0.962,0.692,1.272,1.203c0.309,0.511,0.464,1.085,0.464,1.722
					c0,0.638-0.155,1.212-0.464,1.722c-0.31,0.51-0.733,0.911-1.272,1.202c-0.538,0.291-1.145,0.436-1.819,0.436
					S123.575,260.204,123.034,259.913z M125.897,258.805c0.309-0.177,0.552-0.423,0.729-0.738c0.176-0.316,0.264-0.675,0.264-1.077
					c0-0.402-0.088-0.761-0.264-1.076c-0.176-0.316-0.419-0.562-0.729-0.738c-0.31-0.177-0.656-0.264-1.04-0.264
					c-0.384,0-0.73,0.088-1.039,0.264c-0.31,0.176-0.553,0.422-0.729,0.738c-0.176,0.316-0.264,0.675-0.264,1.076
					c0,0.403,0.088,0.761,0.264,1.077c0.176,0.315,0.419,0.561,0.729,0.738c0.309,0.176,0.656,0.264,1.039,0.264
					C125.241,259.069,125.588,258.98,125.897,258.805z"/>
				<path style="fill:#FFFFFF;" d="M130.264,259.579c-0.517-0.514-0.775-1.247-0.775-2.201v-3.639h1.504v3.584
					c0,1.163,0.483,1.745,1.448,1.745c0.47,0,0.829-0.141,1.076-0.422c0.247-0.282,0.371-0.723,0.371-1.323v-3.584h1.486v3.639
					c0,0.953-0.259,1.687-0.775,2.201c-0.517,0.514-1.239,0.77-2.167,0.77C131.504,260.349,130.781,260.093,130.264,259.579z"/>
				<path style="fill:#FFFFFF;" d="M138.094,254.965h-2.079v-1.225h5.663v1.225h-2.079v5.273h-1.504V254.965z"/>
				<path style="fill:#FFFFFF;" d="M151.026,260.238l-0.009-3.899l-1.912,3.212h-0.678l-1.903-3.128v3.815h-1.411v-6.498h1.244
					l2.432,4.038l2.395-4.038h1.234l0.019,6.498H151.026z"/>
				<path style="fill:#FFFFFF;" d="M159.009,259.032v1.206h-5.031v-6.498h4.911v1.207h-3.416v1.411h3.017v1.169h-3.017v1.504
					H159.009z"/>
			</g>
		</g>
	</g>
</g>
<g id="Character_2">
	<g>
		<g>
			<polygon style="fill:#263238;" points="392.839,411.799 396.44,411.799 391.176,340.2 385.575,340.2 			"/>
			<polygon style="fill:#263238;" points="359.999,411.799 356.398,411.799 359.662,340.2 365.263,340.2 			"/>
			<polygon style="fill:#263238;" points="377.868,411.799 381.469,411.799 378.204,340.2 372.603,340.2 			"/>
			<polygon style="fill:#263238;" points="345.028,411.799 341.427,411.799 346.691,340.2 352.292,340.2 			"/>
			<polygon style="opacity:0.3;fill:#FFFFFF;" points="392.839,411.799 396.44,411.799 391.176,340.2 385.575,340.2 			"/>
			<polygon style="opacity:0.3;fill:#FFFFFF;" points="359.999,411.799 356.398,411.799 359.662,340.2 365.263,340.2 			"/>
			<polygon style="opacity:0.3;fill:#FFFFFF;" points="377.868,411.799 381.469,411.799 378.204,340.2 372.603,340.2 			"/>
			<polygon style="opacity:0.3;fill:#FFFFFF;" points="345.028,411.799 341.427,411.799 346.691,340.2 352.292,340.2 			"/>
			<polygon style="opacity:0.2;" points="346.691,340.2 352.292,340.2 351.635,346.675 346.215,346.675 			"/>
			<polygon style="opacity:0.2;" points="359.662,340.2 365.263,340.2 364.787,346.675 359.367,346.675 			"/>
			<polygon style="opacity:0.2;" points="378.5,346.675 373.08,346.675 372.603,340.2 378.205,340.2 			"/>
			<polygon style="opacity:0.2;" points="391.652,346.675 386.231,346.675 385.575,340.2 391.176,340.2 			"/>
			<g>
				<path style="fill:#407BFF;" d="M343.125,339.556h50.912v-3.217c0-3.285-2.663-5.948-5.948-5.948h-39.017
					c-3.285,0-5.948,2.663-5.948,5.948V339.556z"/>
				<path style="opacity:0.5;fill:#FFFFFF;" d="M343.125,339.556h50.912v-3.217c0-3.285-2.663-5.948-5.948-5.948h-39.017
					c-3.285,0-5.948,2.663-5.948,5.948V339.556z"/>
			</g>
			<path style="fill:#407BFF;" d="M342.054,342.556h53.056c0.513,0,0.928-0.415,0.928-0.928v-3.309c0-0.513-0.416-0.928-0.928-0.928
				h-53.056c-0.513,0-0.928,0.416-0.928,0.928v3.309C341.125,342.141,341.541,342.556,342.054,342.556z"/>
		</g>
		<g>
			<path style="fill:#263238;" d="M361.511,209.538c0,0,10.921-1.03,12.921,10.886c1.63,9.711,9.033,14.174,3.375,20.5
				c-4.967,5.553-11.382,1.156-21.814,2.25c-10.395,1.09-5.695-7.25-7.277-15.637C347.447,220.808,347.391,208.018,361.511,209.538z
				"/>
			<path style="fill:#B97964;" d="M368.933,231.55l-7.421,7.292c1.246,5.993-3.153,6.554-3.153,6.554s0.355,2.107,5.736,1.82
				c5.38-0.287,7.138-0.858,7.138-0.858C367.997,243.77,368.459,235.889,368.933,231.55z"/>
			<path style="opacity:0.1;" d="M361.578,242.216c0.199-0.871,0.225-1.968-0.067-3.374l6.621-6.505l0.65,0.753
				C368.783,233.089,367.451,241.377,361.578,242.216z"/>
			<path style="fill:#B97964;" d="M369.552,221.897c0.542,7.148,0.928,10.161-2.148,14.29c-4.627,6.216-13.521,5.322-16.193-1.518
				c-2.403-6.157-2.89-16.803,3.653-20.583c4.661-2.724,10.648-1.154,13.372,3.507C369.004,218.907,369.454,220.38,369.552,221.897z
				"/>
			<path style="fill:#2E353A;" d="M356.285,233.774c0.083,0.581-0.159,1.089-0.533,1.143c-0.374,0.054-0.747-0.377-0.828-0.95
				c-0.081-0.573,0.159-1.089,0.533-1.143C355.831,232.771,356.212,233.199,356.285,233.774z"/>
			<path style="fill:#A24E3F;" d="M354.432,227.011c-0.33,1.388-0.85,2.724-1.545,3.97c0.652,0.346,1.423,0.386,2.107,0.109
				L354.432,227.011z"/>
			<path style="fill:#2E353A;" d="M359.84,222.135c0.046-0.018,0.088-0.047,0.121-0.084c0.101-0.12,0.086-0.299-0.034-0.4
				c-0.001-0.001-0.003-0.002-0.004-0.004c-0.812-0.715-1.922-0.99-2.974-0.737c-0.147,0.05-0.229,0.207-0.186,0.356
				c0.046,0.147,0.2,0.231,0.349,0.189c0.872-0.195,1.785,0.04,2.454,0.632C359.642,222.151,359.747,222.169,359.84,222.135z"/>
			<path style="fill:#2E353A;" d="M349.278,223.12c0.046-0.018,0.088-0.047,0.121-0.084c0.574-0.679,1.439-1.042,2.326-0.976
				c0.155,0.025,0.301-0.079,0.326-0.234c0-0.001,0-0.003,0.001-0.004c0.02-0.157-0.089-0.3-0.245-0.324
				c-1.078-0.094-2.135,0.339-2.838,1.161c-0.109,0.113-0.105,0.293,0.008,0.402C349.057,223.137,349.175,223.16,349.278,223.12
				L349.278,223.12z"/>
			<g>
				<path style="fill:#2E353A;" d="M358.375,225.495c0.081,0.573-0.161,1.082-0.543,1.138c-0.381,0.056-0.745-0.37-0.82-0.953
					c-0.076-0.583,0.162-1.082,0.535-1.135C357.921,224.492,358.292,224.915,358.375,225.495z"/>
				<path style="fill:#2E353A;" d="M351.852,226.398c0.081,0.573-0.161,1.082-0.535,1.135c-0.374,0.053-0.745-0.37-0.828-0.95
					c-0.083-0.581,0.161-1.082,0.535-1.136C351.398,225.394,351.776,225.815,351.852,226.398z"/>
				<path style="fill:#2E353A;" d="M351.194,225.456l-1.439-0.205C349.754,225.251,350.617,226.23,351.194,225.456z"/>
				<path style="fill:#2E353A;" d="M357.717,224.554l-1.439-0.205C356.278,224.348,357.141,225.328,357.717,224.554z"/>
			</g>
			<path style="fill:#263238;" d="M369.245,227.011c0,0-5.375,0.556-6.438-4.859c-1.063-5.415-2.5-6.165-2.5-6.165
				s0.963,1.542,0.4,3.604s-5.313-0.938-8.813,0.75s1.274-6.667,1.274-6.667l1.824-2.188h6.251l6.125,1.263
				c0,0,2.48,2.612,2.552,2.862c0.073,0.25,1.61,2.375,1.31,2.75s0.039,5.188,0.039,5.188l-0.839,3.477L369.245,227.011z"/>
			<path style="fill:#B97964;" d="M372.003,227.27c-0.211,1.37-0.959,2.6-2.077,3.419c-1.491,1.073-2.865-0.107-2.98-1.844
				c-0.103-1.558,0.549-4.003,2.302-4.389c1.285-0.242,2.522,0.602,2.765,1.887C372.07,226.649,372.067,226.965,372.003,227.27z"/>
			<g>
				<path style="fill:#407BFF;" d="M362.164,291.458h-9.49c0,0-2.5,6.466-3,13.216s12.49,1.75,12.49,1.75l1.135-9.25
					L362.164,291.458z"/>
				<path style="opacity:0.1;" d="M362.164,291.458h-9.49c0,0-2.5,6.466-3,13.216s12.49,1.75,12.49,1.75l1.135-9.25L362.164,291.458
					z"/>
			</g>
			<g>
				<polygon style="fill:#B97964;" points="301.674,366.05 295.424,384.3 290.174,382.8 294.424,363.55 				"/>
				<g>
					<path style="fill:#407BFF;" d="M287.491,381.541c-0.849-0.222-1.686-0.607-1.872-1.045c-0.09-0.252-0.011-0.532,0.196-0.701
						c0.163-0.158,0.382-0.246,0.609-0.246c1.222-0.016,3.25,1.968,3.339,2.056c0.05,0.049,0.064,0.125,0.034,0.189
						c-0.03,0.063-0.095,0.102-0.165,0.099C288.909,381.838,288.193,381.72,287.491,381.541z M286.752,379.928
						c-0.104-0.029-0.212-0.043-0.32-0.041c-0.141-0.012-0.28,0.04-0.377,0.143c-0.173,0.17-0.156,0.278-0.124,0.345
						c0.201,0.527,1.921,0.988,3.233,1.163C288.469,380.854,287.651,380.308,286.752,379.928z"/>
					<path style="fill:#407BFF;" d="M289.607,381.884c-0.024,0.001-0.048-0.008-0.066-0.024c-0.722-0.575-1.977-2.485-1.63-3.216
						c0.065-0.181,0.263-0.37,0.721-0.298c0.334,0.051,0.633,0.235,0.828,0.512c0.683,0.942,0.384,2.832,0.371,2.92
						c-0.011,0.06-0.053,0.108-0.111,0.127C289.681,381.913,289.64,381.905,289.607,381.884z M288.659,378.682l-0.09-0.032
						c-0.297-0.051-0.347,0.061-0.37,0.099c-0.163,0.452,0.611,1.892,1.327,2.614c0.121-0.796-0.004-1.609-0.36-2.331
						C289.044,378.857,288.864,378.733,288.659,378.682L288.659,378.682z"/>
					<path style="fill:#263238;" d="M290.266,381.398l6.456,1.948c0.281,0.073,0.474,0.332,0.464,0.622l-0.237,6.418
						c-0.017,0.569-0.492,1.017-1.061,1c-0.073-0.002-0.146-0.012-0.217-0.03c-2.676-0.749-5.027-1.52-8.375-2.39
						c-3.949-1.03-3.071-0.296-7.73-1.443c-2.807-0.694-2.488-4.007-1.261-3.854c5.607,0.735,7.599-0.757,10.201-2.153
						C289.057,381.263,289.684,381.22,290.266,381.398z"/>
				</g>
				<polygon style="opacity:0.1;" points="298.266,376 292.028,374.4 294.424,363.55 301.674,366.05 				"/>
				<path style="fill:#407BFF;" d="M381.09,290.591c0,0,9.667,16.167,8,29.667c-1.667,13.5-14.154,20.641-62.154-2.359
					c0,0-9.846,10.193-26.179,53.859l-8.333-2.5c0,0,9.417-50.475,17.833-64.833c8.5-14.5,45.833,2.5,48.667-0.333
					c2.522-2.522,0.333-12.5,0.333-12.5L381.09,290.591z"/>
				<g>
					<polygon style="fill:#407BFF;" points="302.799,370.925 301.049,374.3 291.049,370.925 291.049,367.05 					"/>
					<polygon style="opacity:0.3;fill:#FFFFFF;" points="302.799,370.925 301.049,374.3 291.049,370.925 291.049,367.05 					"/>
				</g>
			</g>
			<g>
				<polygon style="fill:#B97964;" points="341.927,388.423 344.007,404.577 338.133,404.729 333.891,389.147 				"/>
				<g>
					<path style="fill:#407BFF;" d="M335.101,404.919c-0.878-0.002-1.784-0.165-2.074-0.543c-0.15-0.221-0.144-0.512,0.015-0.727
						c0.118-0.194,0.308-0.334,0.528-0.39c1.18-0.321,3.639,1.092,3.747,1.155c0.061,0.035,0.093,0.105,0.08,0.174
						c-0.014,0.068-0.067,0.122-0.135,0.137C336.548,404.852,335.826,404.918,335.101,404.919z M333.982,403.543
						c-0.108-0.002-0.216,0.012-0.32,0.04c-0.139,0.023-0.261,0.109-0.329,0.233c-0.125,0.208-0.081,0.309-0.034,0.366
						c0.326,0.46,2.107,0.476,3.421,0.317C335.876,404.01,334.947,403.686,333.982,403.543z"/>
					<path style="fill:#407BFF;" d="M337.235,404.722c-0.023,0.007-0.048,0.004-0.07-0.007c-0.843-0.376-2.535-1.912-2.383-2.705
						c0.018-0.191,0.162-0.424,0.623-0.469c0.336-0.035,0.672,0.069,0.93,0.288c0.897,0.741,1.08,2.646,1.09,2.735
						c0.004,0.06-0.025,0.118-0.075,0.151C337.314,404.732,337.273,404.734,337.235,404.722z M335.516,401.859l-0.096-0.009
						c-0.301,0.025-0.321,0.146-0.333,0.188c-0.044,0.479,1.065,1.679,1.938,2.199c-0.082-0.801-0.407-1.557-0.932-2.167
						C335.933,401.932,335.728,401.857,335.516,401.859L335.516,401.859z"/>
					<path style="fill:#263238;" d="M338.057,403.833l6.706,0.02c0.291,0.001,0.542,0.203,0.604,0.486l1.376,6.273
						c0.126,0.556-0.222,1.108-0.777,1.234c-0.071,0.016-0.144,0.025-0.217,0.026c-2.778-0.056-5.247-0.214-8.706-0.219
						c-4.081-0.009-3.047,0.482-7.846,0.537c-2.891,0.031-3.412-3.257-2.186-3.416c5.613-0.691,7.2-2.384,9.369-4.386
						C336.853,404.004,337.45,403.806,338.057,403.833z"/>
				</g>
				<polygon style="opacity:0.1;" points="336.351,398.186 333.891,389.147 341.927,388.423 343.129,397.761 				"/>
				<path style="fill:#407BFF;" d="M326.936,317.899l0.007-0.004c15.148,7.178,26.821,11.361,35.738,13.28h-26.257
					c1.25,3,6.625,60.75,6.625,60.75l-9.125,0.793c0,0-19.75-57.918-19-66.293S326.936,317.899,326.936,317.899z"/>
				<path style="opacity:0.1;" d="M326.936,317.899l0.007-0.004c15.148,7.178,26.821,11.361,35.738,13.28h-26.257
					c1.25,3,6.625,60.75,6.625,60.75l-9.125,0.793c0,0-19.75-57.918-19-66.293S326.936,317.899,326.936,317.899z"/>
				<g>
					<polygon style="fill:#407BFF;" points="344.143,390.427 344.389,394.175 333.767,395.009 332.256,391.441 					"/>
					<polygon style="opacity:0.3;fill:#FFFFFF;" points="344.143,390.427 344.389,394.175 333.767,395.009 332.256,391.441 					"/>
				</g>
			</g>
			<path style="fill:#B97964;" d="M329.367,270.96l-8.825-1.721l-2.015-5.741l-4.375-4.217l-1.425,3.462
				c-0.206,0.5-0.183,1.066,0.062,1.548l3.113,6.115l12.357,5.365L329.367,270.96z"/>
			<g>
				<path style="fill:#263238;" d="M352.424,260.992c1.07-4.684,2.75-15.375-2.5-16.125c-6.94-0.991-4.531,21.018-10.75,25.336
					c-3.413,2.369-15.486-0.895-15.486-0.895l-1.219,4.935c0,0,15.582,7.144,20.58,5.494
					C348.84,277.825,350.988,267.277,352.424,260.992z"/>
				<path style="opacity:0.5;" d="M352.424,260.992c1.07-4.684,2.75-15.375-2.5-16.125c-6.94-0.991-4.531,21.018-10.75,25.336
					c-3.413,2.369-15.486-0.895-15.486-0.895l-1.219,4.935c0,0,15.582,7.144,20.58,5.494
					C348.84,277.825,350.988,267.277,352.424,260.992z"/>
			</g>
			<path style="fill:#263238;" d="M386.605,249.653c-2.01,7.624-8.569,26.119-4.182,41.939c0,0-19.557,2.65-30.557,0.867
				l-4.463-43.982c-0.186-2.055,1.518-3.786,3.576-3.632l34.004,2.542C386.115,247.471,386.894,248.556,386.605,249.653z"/>
			<path style="fill:#B97964;" d="M348.374,269.382l-6.448-2.34l-2.421-7.751c-0.126-0.403-0.423-0.726-0.808-0.879l-3.578-1.423
				c-1.025-0.408-2.078,0.524-1.831,1.62l1.289,5.719c0.056,0.247,0.176,0.474,0.348,0.657l4.986,5.294l7.218,3.5L348.374,269.382z"
				/>
			<g>
				<path style="fill:#407BFF;" d="M333.651,276.681h-3.443l-5.244-24.671h3.443c1.136,0,2.253,0.921,2.494,2.057l4.37,20.557
					C335.513,275.76,334.788,276.681,333.651,276.681z"/>
				<path style="fill:#407BFF;" d="M327.408,252.01h-12.511c-1.136,0-1.861,0.921-1.62,2.057l4.37,20.557
					c0.241,1.136,1.358,2.057,2.494,2.057h12.511c1.136,0,1.861-0.921,1.62-2.057l-4.37-20.557
					C329.66,252.931,328.543,252.01,327.408,252.01z"/>
				<path style="opacity:0.5;fill:#FFFFFF;" d="M327.408,252.01h-12.511c-1.136,0-1.861,0.921-1.62,2.057l4.37,20.557
					c0.241,1.136,1.358,2.057,2.494,2.057h12.511c1.136,0,1.861-0.921,1.62-2.057l-4.37-20.557
					C329.66,252.931,328.543,252.01,327.408,252.01z"/>
				<path style="opacity:0.5;fill:#263238;" d="M327.959,253.596h-1.671c-0.152,0-0.249,0.123-0.216,0.275l0.584,2.746
					c0.032,0.152,0.181,0.275,0.333,0.275h1.671c0.152,0,0.249-0.123,0.216-0.275l-0.584-2.746
					C328.26,253.719,328.111,253.596,327.959,253.596z"/>
			</g>
			<path style="fill:#B97964;" d="M313.36,261.057l0.949-2.357c0.28-0.695,1.188-0.862,1.696-0.312l0,0
				c0.142,0.154,0.234,0.347,0.262,0.555l0.897,6.566c0.038,0.276-0.039,0.555-0.212,0.773l-1.726,2.173l-1.902-6.739
				C313.264,261.498,313.276,261.266,313.36,261.057z"/>
			<g>
				<path style="fill:#263238;" d="M381.171,271.4c3.43-5.101,11.835-19.243,6.242-23.171c-4.975-3.495-9.627,8.12-16.985,20.084
					c-0.561,0.912-1.137,1.826-1.731,2.735c-0.672,1.03-1.892,1.537-3.073,1.263l-2.993-0.692l-18.619-4.307l-1.182,4.862
					c0,0,19.538,11.515,24.558,11.515C372.409,283.69,377.89,276.28,381.171,271.4z"/>
				<path style="opacity:0.5;" d="M381.171,271.4c3.43-5.101,11.835-19.243,6.242-23.171c-4.975-3.495-9.627,8.12-16.985,20.084
					c-0.561,0.912-1.137,1.826-1.731,2.735c-0.672,1.03-1.892,1.537-3.073,1.263l-2.993-0.692l-18.619-4.307l-1.182,4.862
					c0,0,19.538,11.515,24.558,11.515C372.409,283.69,377.89,276.28,381.171,271.4z"/>
			</g>
			<path style="fill:#263238;" d="M371.641,246.633l-0.825-1.415c-0.033-0.057-0.059-0.117-0.078-0.179l-0.326-1.079
				c-0.11-0.362-0.443-0.606-0.821-0.594c-1.664,0.055-6.272,0.142-9.849-0.43c-0.408-0.065-0.776,0.234-0.786,0.647
				c0,0,0.097,0.727-0.023,0.925c-0.217,0.36-1.466,0.821-1.466,0.821S357.432,248.758,371.641,246.633z"/>
			<g>
				<g>
					<path style="fill:#407BFF;" d="M367.809,250.541c0-0.713,0.578-1.292,1.292-1.292c0.205,0,0.392,0.058,0.564,0.143
						c-0.22-0.232-0.359-0.541-0.359-0.885c0-0.713,0.578-1.292,1.292-1.292c0.034,0,0.063,0.017,0.096,0.019
						c-0.227-0.233-0.369-0.549-0.369-0.9c0-0.713,0.578-1.292,1.292-1.292c0.713,0,1.292,0.578,1.292,1.292
						c0,0.713-0.578,1.292-1.292,1.292c-0.034,0-0.063-0.017-0.096-0.019c0.227,0.233,0.369,0.549,0.369,0.9
						c0,0.713-0.578,1.292-1.292,1.292c-0.205,0-0.392-0.058-0.564-0.143c0.22,0.232,0.359,0.541,0.359,0.885
						c0,0.713-0.578,1.292-1.292,1.292C368.387,251.833,367.809,251.255,367.809,250.541z"/>
					<path style="fill:#407BFF;" d="M365.892,252.376c0-0.713,0.578-1.292,1.292-1.292c0.713,0,1.292,0.578,1.292,1.292
						c0,0.713-0.578,1.292-1.292,1.292C366.47,253.668,365.892,253.09,365.892,252.376z"/>
					<path style="fill:#407BFF;" d="M364.982,252.376c0.713,0,1.292,0.578,1.292,1.292c0,0.713-0.578,1.292-1.292,1.292
						c-0.713,0-1.292-0.578-1.292-1.292C363.69,252.955,364.268,252.376,364.982,252.376z"/>
					<path style="fill:#407BFF;" d="M362.516,253.026c0.713,0,1.292,0.578,1.292,1.292c0,0.713-0.578,1.292-1.292,1.292
						c-0.713,0-1.292-0.578-1.292-1.292C361.224,253.605,361.802,253.026,362.516,253.026z"/>
					<path style="fill:#407BFF;" d="M359.932,252.872c0.713,0,1.292,0.578,1.292,1.292c0,0.713-0.578,1.292-1.292,1.292
						c-0.713,0-1.292-0.578-1.292-1.292C358.641,253.45,359.219,252.872,359.932,252.872z"/>
					<path style="fill:#407BFF;" d="M357.514,251.995c0.713,0,1.292,0.578,1.292,1.292c0,0.713-0.578,1.292-1.292,1.292
						c-0.713,0-1.292-0.578-1.292-1.292C356.222,252.574,356.801,251.995,357.514,251.995z"/>
					<path style="fill:#407BFF;" d="M356.082,249.796c-0.706-0.008-1.278-0.581-1.278-1.289c0-0.713,0.578-1.292,1.292-1.292
						c0.713,0,1.292,0.578,1.292,1.292c0,0.708-0.571,1.281-1.278,1.289c0.707,0.008,1.278,0.58,1.278,1.289
						c0,0.713-0.578,1.292-1.292,1.292c-0.713,0-1.292-0.578-1.292-1.292C354.804,250.376,355.375,249.804,356.082,249.796z"/>
					<path style="fill:#407BFF;" d="M356.769,247.329c-0.713,0-1.291-0.578-1.291-1.292c0-0.713,0.578-1.292,1.291-1.292
						c0.713,0,1.292,0.578,1.292,1.292C358.061,246.751,357.483,247.329,356.769,247.329z"/>
				</g>
				<g style="opacity:0.5;">
					<path style="fill:#FFFFFF;" d="M367.809,250.541c0-0.713,0.578-1.292,1.292-1.292c0.205,0,0.392,0.058,0.564,0.143
						c-0.22-0.232-0.359-0.541-0.359-0.885c0-0.713,0.578-1.292,1.292-1.292c0.034,0,0.063,0.017,0.096,0.019
						c-0.227-0.233-0.369-0.549-0.369-0.9c0-0.713,0.578-1.292,1.292-1.292c0.713,0,1.292,0.578,1.292,1.292
						c0,0.713-0.578,1.292-1.292,1.292c-0.034,0-0.063-0.017-0.096-0.019c0.227,0.233,0.369,0.549,0.369,0.9
						c0,0.713-0.578,1.292-1.292,1.292c-0.205,0-0.392-0.058-0.564-0.143c0.22,0.232,0.359,0.541,0.359,0.885
						c0,0.713-0.578,1.292-1.292,1.292C368.387,251.833,367.809,251.255,367.809,250.541z"/>
					<path style="fill:#FFFFFF;" d="M365.892,252.376c0-0.713,0.578-1.292,1.292-1.292c0.713,0,1.292,0.578,1.292,1.292
						c0,0.713-0.578,1.292-1.292,1.292C366.47,253.668,365.892,253.09,365.892,252.376z"/>
					<path style="fill:#FFFFFF;" d="M364.982,252.376c0.713,0,1.292,0.578,1.292,1.292c0,0.713-0.578,1.292-1.292,1.292
						c-0.713,0-1.292-0.578-1.292-1.292C363.69,252.955,364.268,252.376,364.982,252.376z"/>
					<path style="fill:#FFFFFF;" d="M362.516,253.026c0.713,0,1.292,0.578,1.292,1.292c0,0.713-0.578,1.292-1.292,1.292
						c-0.713,0-1.292-0.578-1.292-1.292C361.224,253.605,361.802,253.026,362.516,253.026z"/>
					<path style="fill:#FFFFFF;" d="M359.932,252.872c0.713,0,1.292,0.578,1.292,1.292c0,0.713-0.578,1.292-1.292,1.292
						c-0.713,0-1.292-0.578-1.292-1.292C358.641,253.45,359.219,252.872,359.932,252.872z"/>
					<path style="fill:#FFFFFF;" d="M357.514,251.995c0.713,0,1.292,0.578,1.292,1.292c0,0.713-0.578,1.292-1.292,1.292
						c-0.713,0-1.292-0.578-1.292-1.292C356.222,252.574,356.801,251.995,357.514,251.995z"/>
					<path style="fill:#FFFFFF;" d="M356.082,249.796c-0.706-0.008-1.278-0.581-1.278-1.289c0-0.713,0.578-1.292,1.292-1.292
						c0.713,0,1.292,0.578,1.292,1.292c0,0.708-0.571,1.281-1.278,1.289c0.707,0.008,1.278,0.58,1.278,1.289
						c0,0.713-0.578,1.292-1.292,1.292c-0.713,0-1.292-0.578-1.292-1.292C354.804,250.376,355.375,249.804,356.082,249.796z"/>
					<path style="fill:#FFFFFF;" d="M356.769,247.329c-0.713,0-1.291-0.578-1.291-1.292c0-0.713,0.578-1.292,1.291-1.292
						c0.713,0,1.292,0.578,1.292,1.292C358.061,246.751,357.483,247.329,356.769,247.329z"/>
				</g>
			</g>
			<path style="opacity:0.3;" d="M369.582,246.869c0,0-7.618,1.212-10.975-0.34C358.607,246.528,361.224,251.644,369.582,246.869z"
				/>
		</g>
	</g>
</g>
<g id="Character_1">
	<g>
		<polygon style="fill:#CE7A63;" points="152.92,225.954 158.628,228.593 166.048,228.237 168.973,232.66 167.831,233.761 
			161.635,233.761 158.057,232.589 156.688,231.305 150.28,229.857 		"/>
		<g>
			<path style="fill:#407BFF;" d="M143.965,191.142c0,0-5.709-5.052-7.302,12.4s0.127,19.415,3.939,22.412
				c4.794,3.768,12.694,5.866,12.694,5.866l3.244-4.904c0,0-9.455-6.037-10.913-9.784
				C144.541,214.339,150.035,195.212,143.965,191.142z"/>
			<path style="opacity:0.2;" d="M143.965,191.142c0,0-5.709-5.052-7.302,12.4s0.127,19.415,3.939,22.412
				c4.794,3.768,12.694,5.866,12.694,5.866l3.244-4.904c0,0-9.455-6.037-10.913-9.784
				C144.541,214.339,150.035,195.212,143.965,191.142z"/>
		</g>
		<path style="fill:#407BFF;" d="M111.773,236.489h35.292c-0.109-5.673-0.243-13.551-0.311-21.16
			c-0.127-14.188,5.407-27.972-16.337-28.908c-21.126-0.909-25.804-2.456-21.438,16.836
			C112.299,217.921,112.308,226.622,111.773,236.489z"/>
		<path style="fill:#CE7A63;" d="M123.051,189.106c0.839,0.802,1.858,1.563,3.048,2.069c3.719,1.581,8.023,0.929,8.023,0.929
			l2.494-1.225l0.174-1.415l-0.056-0.354c-0.044-0.01-0.085-0.029-0.13-0.036c-4.779-0.811-5.673-4.772-5.305-8.393l-10.145-6.402
			C122.523,178.188,124.293,184.935,123.051,189.106z"/>
		<path style="fill:#CE7A63;" d="M120.698,185.998l1.642,2.364l4.456,3.081l5.199,0.794l3.775-0.556l1.264-1.626l-1.102-3.037
			c-1.634-0.306-3.465-0.509-5.515-0.598C126.675,186.26,123.45,186.08,120.698,185.998z"/>
		<g>
			<path style="fill:#407BFF;" d="M133.035,192.971c6.165,0,4.812-3.65,3.443-5.843c-0.65-0.135-1.332-0.252-2.048-0.352
				c1.768,1.661,3.749,4.402-2.034,4.695c-6.327,0.32-9.516-3.544-10.693-5.44c-1.018-0.037-1.976-0.063-2.876-0.073
				C120.014,188.063,123.771,192.971,133.035,192.971z"/>
			<path style="opacity:0.5;fill:#FFFFFF;" d="M133.035,192.971c6.165,0,4.812-3.65,3.443-5.843
				c-0.65-0.135-1.332-0.252-2.048-0.352c1.768,1.661,3.749,4.402-2.034,4.695c-6.327,0.32-9.516-3.544-10.693-5.44
				c-1.018-0.037-1.976-0.063-2.876-0.073C120.014,188.063,123.771,192.971,133.035,192.971z"/>
		</g>
		<path style="opacity:0.2;enable-background:new    ;" d="M125.288,176.909l6.012,3.757c-0.075,0.888-0.075,1.78,0,2.668
			c-2.059,0-4.899-1.323-6.012-3.419C124.581,178.637,124.792,177.142,125.288,176.909z"/>
		<path style="fill:#263238;" d="M131.014,167.929c-4.614-2.75-7.146-8.439-6.763-9.701c0.383-1.262,7.635-3.487,8.627-2.961
			c4.952,2.495,1.841,9.34,1.841,9.34l1.721,2.254L131.014,167.929z"/>
		<path style="fill:#CE7A63;" d="M118.389,167.704c1.751,6.252,2.465,9.994,6.365,12.549c5.861,3.855,13.053-0.751,13.195-7.379
			c0.128-6.012-2.765-15.194-9.506-16.374c-4.807-0.867-9.407,2.326-10.274,7.133C117.925,164.988,118,166.382,118.389,167.704z"/>
		<path style="fill:#263238;" d="M118.044,172.175c-4.321-3.186-6.175-8.773-5.611-9.952c1.503-3.126,5.318-4.911,8.722-3.251
			c4.997,2.397,0.917,10.295,0.917,10.295l1.503,2.435L118.044,172.175z"/>
		<path style="fill:#CE7A63;" d="M116.571,174.279c1.144,1.161,2.699,1.825,4.328,1.848c2.164,0,2.675-2.066,1.593-3.81
			c-0.969-1.563-3.269-3.457-5.208-2.63C115.346,170.514,115.181,172.828,116.571,174.279z"/>
		<path style="fill:#263238;" d="M128.692,167.395c0.113,0.518,0.473,0.879,0.811,0.804c0.338-0.075,0.519-0.549,0.406-1.067
			c-0.113-0.518-0.473-0.872-0.812-0.796C128.759,166.411,128.579,166.885,128.692,167.395z"/>
		<path style="fill:#263238;" d="M134.515,166.141c0.113,0.511,0.474,0.872,0.812,0.797c0.338-0.075,0.519-0.549,0.406-1.06
			s-0.473-0.879-0.812-0.804C134.583,165.148,134.403,165.622,134.515,166.141z"/>
		<path style="fill:#BA4D3C;" d="M132.396,166.802c0.956,1.441,2.107,2.743,3.419,3.87c-0.752,1.052-2.367,0.999-2.367,0.999
			L132.396,166.802z"/>
		<path style="fill:#263238;" d="M126.167,165.412c-0.052,0.011-0.106,0.011-0.158,0c-0.151-0.077-0.216-0.257-0.15-0.413
			c0.404-0.911,1.22-1.573,2.194-1.781c0.17-0.025,0.328,0.093,0.353,0.263c0.025,0.17-0.093,0.328-0.263,0.353l0,0
			c-0.77,0.172-1.41,0.703-1.721,1.428C126.368,165.352,126.272,165.408,126.167,165.412z"/>
		<path style="fill:#263238;" d="M136.274,163.3c-0.105,0.01-0.208-0.035-0.271-0.12c-0.465-0.629-1.201-1-1.984-0.999
			c-0.17,0.015-0.32-0.112-0.334-0.282c-0.015-0.17,0.112-0.32,0.282-0.334c1-0.024,1.949,0.439,2.547,1.24
			c0.104,0.129,0.084,0.319-0.045,0.423c-0.002,0.002-0.005,0.004-0.007,0.006C136.409,163.276,136.342,163.3,136.274,163.3z"/>
		<path style="fill:#263238;" d="M119.685,161.489c0,0,19.83-1.865,14.201-9.906c-4.248-6.068-6.499-5.522-7.631-4.057
			c-1.034,1.339-2.606,2.144-4.294,2.037c-2.722-0.172-6.105,0.169-5.741,3c0.161,1.251-0.416,2.487-1.399,3.277
			C112.407,157.781,109.838,161.088,119.685,161.489z"/>
		<path style="fill:#263238;" d="M133.354,174.509c0.292-0.039,0.58-0.104,0.861-0.193c0.092-0.024,0.148-0.118,0.124-0.21
			c-0.001-0.002-0.001-0.004-0.002-0.006c-0.034-0.091-0.133-0.139-0.226-0.111c-1.433,0.464-3.001,0.22-4.226-0.657
			c-0.074-0.062-0.185-0.053-0.247,0.021c-0.063,0.074-0.053,0.185,0.021,0.247C130.717,174.39,132.05,174.718,133.354,174.509z"/>
		<path style="opacity:0.2;" d="M111.88,218.248c0,0,0.856-1.641,8.205,4.994c7.349,6.635,7.349,6.635,7.349,6.635l4.637,1.641
			l4.566,1.926v1.643h-4.352l-1.712-1.001c0,0-9.61-1.238-18.548-7.237c-0.034-2.714-0.18-5.52-0.492-8.56
			C111.747,218.261,111.88,218.248,111.88,218.248z"/>
		<path style="opacity:0.2;" d="M111.023,210.543l1.427-15.125l1.634-3.18h1.81c0,0,1.271,6.62,0.489,17.349
			c-0.236,3.236,1.321,9.577,8.106,14.922l-8.119-3.425l-4.081-5.618l0.561-2.216L111.023,210.543z"/>
		<g>
			<g>
				<g>
					<path style="fill:#263238;" d="M171.127,236.398h-26.889c-1.447,0-2.62-1.173-2.62-2.62l0,0h32.13l0,0
						C173.747,235.225,172.574,236.398,171.127,236.398z"/>
					<path style="opacity:0.2;fill:#FFFFFF;" d="M171.127,236.398h-26.889c-1.447,0-2.62-1.173-2.62-2.62l0,0h32.13l0,0
						C173.747,235.225,172.574,236.398,171.127,236.398z"/>
				</g>
				<path style="fill:#263238;" d="M152.34,236.398h-26.889c-1.447,0-2.62-1.173-2.62-2.62l0,0h32.13l0,0
					C154.961,235.225,153.788,236.398,152.34,236.398z"/>
				<path style="opacity:0.5;fill:#FFFFFF;" d="M152.34,236.398h-26.889c-1.447,0-2.62-1.173-2.62-2.62l0,0h32.13l0,0
					C154.961,235.225,153.788,236.398,152.34,236.398z"/>
				<g>
					<path style="fill:#263238;" d="M171.344,235.597H154.95c-0.427,0-0.727-0.422-0.585-0.825l8.99-25.683
						c0.248-0.708,0.915-1.181,1.665-1.181h16.394c0.427,0,0.727,0.422,0.585,0.825l-8.99,25.683
						C172.761,235.123,172.094,235.597,171.344,235.597z"/>
					<path style="opacity:0.5;fill:#FFFFFF;" d="M171.344,235.597H154.95c-0.427,0-0.727-0.422-0.585-0.825l8.99-25.683
						c0.248-0.708,0.915-1.181,1.665-1.181h16.394c0.427,0,0.727,0.422,0.585,0.825l-8.99,25.683
						C172.761,235.123,172.094,235.597,171.344,235.597z"/>
				</g>
				<g>
					<path style="fill:#263238;" d="M172.135,235.597h-16.394c-0.427,0-0.727-0.422-0.585-0.825l8.99-25.683
						c0.248-0.708,0.916-1.181,1.665-1.181h16.394c0.427,0,0.727,0.422,0.585,0.825l-8.99,25.683
						C173.553,235.123,172.885,235.597,172.135,235.597z"/>
					<path style="opacity:0.7;fill:#FFFFFF;" d="M172.135,235.597h-16.394c-0.427,0-0.727-0.422-0.585-0.825l8.99-25.683
						c0.248-0.708,0.916-1.181,1.665-1.181h16.394c0.427,0,0.727,0.422,0.585,0.825l-8.99,25.683
						C173.553,235.123,172.885,235.597,172.135,235.597z"/>
				</g>
				<path style="fill:#FFFFFF;" d="M170.303,221.752c-0.209,0.984-0.89,1.782-1.52,1.782s-0.972-0.798-0.763-1.782
					c0.209-0.984,0.89-1.782,1.52-1.782S170.512,220.768,170.303,221.752z"/>
			</g>
			<polygon style="fill:#CE7A63;" points="125.828,225.954 131.536,228.593 138.956,228.237 141.881,232.66 140.739,233.761 
				134.543,233.761 130.965,232.589 129.596,231.305 123.188,229.857 			"/>
			<path style="fill:#407BFF;" d="M113.576,188.196c0,0-6.565-5.052-8.158,12.4c-1.594,17.451,2.314,21.509,9.943,25.679
				c5.35,2.924,12.694,5.866,12.694,5.866l3.244-4.904c0,0-15.459-9.305-16.917-13.052
				C113.296,211.393,119.646,192.266,113.576,188.196z"/>
		</g>
	</g>
</g>
<g id="Speech_Bubble">
	<g>
		<g>
			<path style="fill:#407BFF;" d="M382.956,226.717l2.826-1.701c1.133-0.682,4.155-2.511,4.538-2.784
				c0.767-0.555,1.364-1.534,1.038-2.213c-0.825-1.717-4.496-2.684-6.26-3.149c-0.611-0.162-1.023-0.271-1.274-0.374
				c-8.091-2.598-13.319-7.924-13.606-13.885c-0.447-9.281,10.952-17.398,25.409-18.094c14.447-0.698,26.589,6.29,27.037,15.567
				c0.218,4.531-2.339,8.911-7.2,12.334c-4.793,3.376-11.265,5.419-18.223,5.754c-0.212,0.01-0.265,0.382-0.271,0.424
				c-0.439,3.478-2.562,4.503-4.112,5.252l-0.203,0.099c-1.608,0.784-3.303,1.2-4.942,1.602L382.956,226.717z M397.616,185.469
				c-0.642,0-1.29,0.016-1.942,0.047c-13.906,0.67-24.878,8.317-24.457,17.047c0.267,5.534,5.229,10.514,12.951,12.995
				c0.228,0.092,0.652,0.205,1.145,0.335c2.096,0.552,5.922,1.56,6.948,3.693c0.58,1.207-0.242,2.653-1.355,3.458l-0.003,0.002
				c-0.194,0.138-0.938,0.599-1.773,1.11c1.05-0.286,2.097-0.626,3.088-1.109l0.205-0.1c1.493-0.721,3.184-1.538,3.555-4.476
				c0.095-0.757,0.572-1.267,1.214-1.298c6.771-0.326,13.055-2.305,17.695-5.572c4.571-3.219,6.978-7.292,6.777-11.469
				C421.262,191.815,410.652,185.469,397.616,185.469z"/>
		</g>
		<g>
			<g>
				<path style="fill:#407BFF;" d="M389.289,197.522h-2.025c-0.955,0-1.773,0.776-1.823,1.732l-0.49,9.341
					c-0.05,0.956,0.686,1.732,1.641,1.732h2.024c0.955,0,1.772-0.776,1.821-1.732l0.49-9.341
					C390.979,198.298,390.244,197.522,389.289,197.522z"/>
				<path style="opacity:0.5;fill:#FFFFFF;" d="M389.289,197.522h-2.025c-0.955,0-1.773,0.776-1.823,1.732l-0.49,9.341
					c-0.05,0.956,0.686,1.732,1.641,1.732h2.024c0.955,0,1.772-0.776,1.821-1.732l0.49-9.341
					C390.979,198.298,390.244,197.522,389.289,197.522z"/>
				<path style="fill:#407BFF;" d="M406.086,197.522h-5.923l0.512-2.408c0.428-1.293,0.493-3.848,0.493-3.848
					c-0.056-0.491-0.378-1.327-1.005-1.674c-0.814-0.452-1.768-0.584-2.691-0.466l-0.544,0.509c-0.055,1.041-0.409,3.78-1.057,4.597
					l-2.821,3.558c-0.381,0.476-0.607,1.068-0.638,1.666l-0.458,8.737c-0.061,1.174,0.85,2.134,2.025,2.134h8.288
					c0.727,0,1.433-0.319,1.935-0.877l0.782-0.87c0.299-0.333,0.508-0.737,0.605-1.173l1.815-8.089L406.086,197.522z"/>
			</g>
		</g>
	</g>
</g>
</svg>
