<svg id="visual" viewBox="0 0 900 600" width="900" height="600" xmlns="http://www.w3.org/2000/svg" xmlns:xlink="http://www.w3.org/1999/xlink" version="1.1"><rect x="0" y="0" width="900" height="600" fill="#64a5d7"></rect><defs><linearGradient id="grad1_0" x1="33.3%" y1="0%" x2="100%" y2="100%"><stop offset="20%" stop-color="#64a5d7" stop-opacity="1"></stop><stop offset="80%" stop-color="#64a5d7" stop-opacity="1"></stop></linearGradient></defs><defs><linearGradient id="grad2_0" x1="0%" y1="0%" x2="66.7%" y2="100%"><stop offset="20%" stop-color="#64a5d7" stop-opacity="1"></stop><stop offset="80%" stop-color="#64a5d7" stop-opacity="1"></stop></linearGradient></defs><g transform="translate(900, 0)"><path d="M0 243.4C-27.7 228.2 -55.5 213 -83.4 201.4C-111.4 189.8 -139.5 181.7 -164.8 164.8C-190 147.8 -212.2 122.1 -224.8 93.1C-237.5 64.2 -240.4 32.1 -243.4 0L0 0Z" fill="#587aae"></path></g><g transform="translate(0, 600)"><path d="M0 -243.4C27 -229.8 54.1 -216.2 85.7 -206.9C117.3 -197.7 153.5 -192.9 172.1 -172.1C190.6 -151.3 191.5 -114.4 200.5 -83C209.4 -51.7 226.4 -25.8 243.4 0L0 0Z" fill="#587aae"></path></g></svg>