<?xml version="1.0" encoding="utf-8"?>
<!-- Generator: Adobe Illustrator 27.5.0, SVG Export Plug-In . SVG Version: 6.00 Build 0)  -->
<svg version="1.1" xmlns="http://www.w3.org/2000/svg" xmlns:xlink="http://www.w3.org/1999/xlink" x="0px" y="0px"
	 viewBox="0 0 500 500" style="enable-background:new 0 0 500 500;" xml:space="preserve">
<g id="Background_Complete">
	<g>
		<rect x="416.779" y="398.494" style="fill:#EBEBEB;" width="33.122" height="0.25"/>
		<rect x="322.527" y="401.208" style="fill:#EBEBEB;" width="8.693" height="0.25"/>
		<rect x="396.586" y="389.208" style="fill:#EBEBEB;" width="19.192" height="0.25"/>
		<rect x="52.459" y="390.888" style="fill:#EBEBEB;" width="43.193" height="0.25"/>
		<rect x="104.556" y="390.888" style="fill:#EBEBEB;" width="6.333" height="0.25"/>
		<rect x="131.471" y="395.111" style="fill:#EBEBEB;" width="93.676" height="0.25"/>
		<path style="fill:#EBEBEB;" d="M237.014,337.8H43.915c-3.147,0-5.708-2.561-5.708-5.708V60.66c0-3.147,2.561-5.708,5.708-5.708
			h193.099c3.146,0,5.707,2.561,5.707,5.708v271.432C242.721,335.239,240.16,337.8,237.014,337.8z M43.915,55.203
			c-3.01,0-5.458,2.448-5.458,5.458v271.432c0,3.01,2.448,5.458,5.458,5.458h193.099c3.009,0,5.457-2.448,5.457-5.458V60.66
			c0-3.009-2.448-5.458-5.457-5.458H43.915z"/>
		<path style="fill:#EBEBEB;" d="M453.31,337.8H260.212c-3.147,0-5.707-2.561-5.707-5.708V60.66c0-3.147,2.561-5.708,5.707-5.708
			H453.31c3.148,0,5.708,2.561,5.708,5.708v271.432C459.019,335.239,456.458,337.8,453.31,337.8z M260.212,55.203
			c-3.009,0-5.457,2.448-5.457,5.458v271.432c0,3.01,2.448,5.458,5.457,5.458H453.31c3.01,0,5.458-2.448,5.458-5.458V60.66
			c0-3.009-2.448-5.458-5.458-5.458H260.212z"/>
		<rect y="382.398" style="fill:#EBEBEB;" width="500" height="0.25"/>
	</g>
	<g>
		<g>
			<circle style="fill:#F0F0F0;" cx="379.175" cy="102.992" r="27.284"/>
			<g>
				<g>
					<path style="fill:#FFFFFF;" d="M379.253,130.884c-15.382,0-27.898-12.515-27.898-27.898c0-15.384,12.516-27.899,27.898-27.899
						v1.228c-14.706,0-26.67,11.965-26.67,26.671c0,14.706,11.964,26.671,26.67,26.671V130.884z"/>
				</g>
				<g>
					<g>
						<g>
							<path style="fill:#FFFFFF;" d="M379.253,130.884v-1.228c14.706,0,26.671-11.965,26.671-26.671
								c0-14.707-11.965-26.671-26.671-26.671v-1.228c15.383,0,27.899,12.515,27.899,27.899
								C407.152,118.369,394.636,130.884,379.253,130.884z"/>
						</g>
						<g>
							<g>
								<path style="fill:#FFFFFF;" d="M393.509,102.992h-1.228c0-9.042-4.589-21.141-13.359-26.768l0.662-1.034
									C388.726,81.056,393.509,93.616,393.509,102.992z"/>
							</g>
							<g>
								<path style="fill:#FFFFFF;" d="M379.584,129.96l-0.662-1.034c8.771-5.627,13.359-17.725,13.359-26.768h1.228
									C393.509,111.535,388.726,124.095,379.584,129.96z"/>
							</g>
						</g>
						<g>
							<g>
								<path style="fill:#FFFFFF;" d="M366.225,102.986h-1.228c0-9.376,4.783-21.936,13.923-27.802l0.664,1.034
									C370.814,81.845,366.225,93.944,366.225,102.986z"/>
							</g>
							<g>
								<path style="fill:#FFFFFF;" d="M378.921,129.954c-9.14-5.866-13.923-18.426-13.923-27.801h1.228
									c0,9.042,4.589,21.14,13.359,26.768L378.921,129.954z"/>
							</g>
						</g>
						<g>
							<rect x="378.639" y="75.701" style="fill:#FFFFFF;" width="1.228" height="54.57"/>
						</g>
					</g>
				</g>
				<g>
					<g>
						<rect x="356.158" y="87.838" style="fill:#FFFFFF;" width="46.19" height="1.228"/>
					</g>
					<g>
						<rect x="351.981" y="102.836" style="fill:#FFFFFF;" width="54.545" height="1.228"/>
					</g>
					<g>
						<rect x="356.769" y="117.823" style="fill:#FFFFFF;" width="44.97" height="1.228"/>
					</g>
				</g>
			</g>
		</g>
		<g>
			<g>
				<g>
					<rect x="53.118" y="359.9" style="fill:#E6E6E6;" width="13.779" height="3.622"/>
					<rect x="160.041" y="359.9" style="fill:#E6E6E6;" width="13.779" height="3.622"/>
				</g>
				<rect x="75.007" y="361.711" style="fill:#E0E0E0;" width="3.622" height="21.298"/>
				<g>
					<rect x="64.85" y="261.73" style="fill:#E6E6E6;" width="98.734" height="7.716"/>
					<rect x="64.85" y="357.853" style="fill:#E6E6E6;" width="98.734" height="7.716"/>
					<g>
						<path style="fill:#F0F0F0;" d="M68.618,373.133l-0.305,0.318c-1.116,1.162-2.975,1.162-4.091,0l-0.306-0.318
							c-0.917-0.955-1.428-2.227-1.428-3.551V263.793c0-1.323,0.512-2.596,1.428-3.551l0.306-0.318c1.116-1.162,2.975-1.162,4.091,0
							l0.305,0.318c0.917,0.955,1.429,2.227,1.429,3.551v105.789C70.046,370.905,69.535,372.178,68.618,373.133z"/>
						<path style="fill:#F0F0F0;" d="M79.168,373.133l-0.306,0.318c-1.116,1.162-2.975,1.162-4.091,0l-0.306-0.318
							c-0.916-0.955-1.428-2.227-1.428-3.551V263.793c0-1.323,0.512-2.596,1.428-3.551l0.306-0.318c1.116-1.162,2.975-1.162,4.091,0
							l0.306,0.318c0.917,0.955,1.428,2.227,1.428,3.551v105.789C80.597,370.905,80.085,372.178,79.168,373.133z"/>
						<path style="fill:#F0F0F0;" d="M89.719,373.133l-0.306,0.318c-1.116,1.162-2.975,1.162-4.091,0l-0.306-0.318
							c-0.917-0.955-1.428-2.227-1.428-3.551V263.793c0-1.323,0.512-2.596,1.428-3.551l0.306-0.318c1.116-1.162,2.975-1.162,4.091,0
							l0.306,0.318c0.916,0.955,1.428,2.227,1.428,3.551v105.789C91.147,370.905,90.635,372.178,89.719,373.133z"/>
						<path style="fill:#F0F0F0;" d="M100.27,373.133l-0.305,0.318c-1.116,1.162-2.975,1.162-4.091,0l-0.305-0.318
							c-0.917-0.955-1.428-2.227-1.428-3.551V263.793c0-1.323,0.512-2.596,1.428-3.551l0.305-0.318c1.116-1.162,2.975-1.162,4.091,0
							l0.305,0.318c0.917,0.955,1.428,2.227,1.428,3.551v105.789C101.698,370.905,101.186,372.178,100.27,373.133z"/>
						<path style="fill:#F0F0F0;" d="M110.82,373.133l-0.305,0.318c-1.116,1.162-2.975,1.162-4.091,0l-0.305-0.318
							c-0.917-0.955-1.429-2.227-1.429-3.551V263.793c0-1.323,0.512-2.596,1.429-3.551l0.305-0.318c1.116-1.162,2.975-1.162,4.091,0
							l0.305,0.318c0.917,0.955,1.428,2.227,1.428,3.551v105.789C112.248,370.905,111.737,372.178,110.82,373.133z"/>
						<path style="fill:#F0F0F0;" d="M121.37,373.133l-0.305,0.318c-1.116,1.162-2.975,1.162-4.091,0l-0.305-0.318
							c-0.917-0.955-1.429-2.227-1.429-3.551V263.793c0-1.323,0.512-2.596,1.429-3.551l0.305-0.318c1.116-1.162,2.975-1.162,4.091,0
							l0.305,0.318c0.917,0.955,1.429,2.227,1.429,3.551v105.789C122.799,370.905,122.287,372.178,121.37,373.133z"/>
						<path style="fill:#F0F0F0;" d="M131.921,373.133l-0.306,0.318c-1.116,1.162-2.975,1.162-4.091,0l-0.305-0.318
							c-0.916-0.955-1.428-2.227-1.428-3.551V263.793c0-1.323,0.512-2.596,1.428-3.551l0.305-0.318c1.116-1.162,2.975-1.162,4.091,0
							l0.306,0.318c0.916,0.955,1.428,2.227,1.428,3.551v105.789C133.349,370.905,132.837,372.178,131.921,373.133z"/>
						<path style="fill:#F0F0F0;" d="M142.471,373.133l-0.305,0.318c-1.116,1.162-2.975,1.162-4.091,0l-0.305-0.318
							c-0.917-0.955-1.428-2.227-1.428-3.551V263.793c0-1.323,0.512-2.596,1.428-3.551l0.305-0.318c1.116-1.162,2.975-1.162,4.091,0
							l0.305,0.318c0.917,0.955,1.428,2.227,1.428,3.551v105.789C143.9,370.905,143.388,372.178,142.471,373.133z"/>
						<g>
							<rect x="146.892" y="361.711" style="fill:#E0E0E0;" width="3.622" height="21.298"/>
						</g>
						<path style="fill:#F0F0F0;" d="M153.022,373.133l-0.305,0.318c-1.116,1.162-2.975,1.162-4.091,0l-0.305-0.318
							c-0.917-0.955-1.428-2.227-1.428-3.551V263.793c0-1.323,0.512-2.596,1.428-3.551l0.305-0.318c1.116-1.162,2.975-1.162,4.091,0
							l0.305,0.318c0.917,0.955,1.428,2.227,1.428,3.551v105.789C154.451,370.905,153.939,372.178,153.022,373.133z"/>
						<path style="fill:#F0F0F0;" d="M163.573,373.133l-0.305,0.318c-1.116,1.162-2.975,1.162-4.091,0l-0.305-0.318
							c-0.917-0.955-1.428-2.227-1.428-3.551V263.793c0-1.323,0.512-2.596,1.428-3.551l0.305-0.318c1.116-1.162,2.975-1.162,4.091,0
							l0.305,0.318c0.917,0.955,1.428,2.227,1.428,3.551v105.789C165.001,370.905,164.489,372.178,163.573,373.133z"/>
					</g>
				</g>
				<rect x="170.985" y="349.756" style="fill:#F5F5F5;" width="3.622" height="33.069"/>
			</g>
			<g>
				<g>
					<path style="fill:#F5F5F5;" d="M388.608,328.294c0,0-4.653-52.29-28.946-102.507c0,0,35.863,33.475,37.12,102.507H388.608z"/>
					<path style="fill:#F5F5F5;" d="M394.267,336.391c0,0-19.514-91.033-16.045-139.237c0,0,26.106,53.662,24.848,134.778
						L394.267,336.391z"/>
					<path style="fill:#E6E6E6;" d="M408.683,330.643c0,0,1.86-59.429,11.401-88.781c0,0,7.957,37.271-5.26,87.366L408.683,330.643z
						"/>
					<path style="fill:#E6E6E6;" d="M403.07,331.932c0,0-6.288-79.248,11.318-114.766c0,0,1.887,72.007-2.515,114.766H403.07z"/>
				</g>
				<polygon style="fill:#F0F0F0;" points="423.172,382.613 383.371,382.613 377.679,323.882 428.865,323.882 				"/>
				<path style="fill:#F5F5F5;" d="M417.936,332.382c0,0,4.653-52.29,28.946-102.507c0,0-35.863,33.475-37.12,102.507H417.936z"/>
			</g>
		</g>
	</g>
</g>
<g id="Background_Simple" style="display:none;">
	<g style="display:inline;">
		<path style="fill:#407BFF;" d="M379.659,330.182L163.15,395.101c-32.867,9.855-67.22-10.12-74.913-43.559L56.371,221.117
			c-8.463-36.787,19.102-72.029,56.845-72.675l233.492-3.998c47.686-0.817,97.074,36.248,89.349,117.363l0,0
			C432.838,293.916,410.57,320.913,379.659,330.182z"/>
	</g>
	<g style="display:inline;opacity:0.9;">
		<path style="fill:#FFFFFF;" d="M379.659,330.182L163.15,395.101c-32.867,9.855-67.22-10.12-74.913-43.559L56.371,221.117
			c-8.463-36.787,19.102-72.029,56.845-72.675l233.492-3.998c47.686-0.817,97.074,36.248,89.349,117.363l0,0
			C432.838,293.916,410.57,320.913,379.659,330.182z"/>
	</g>
	<polygon style="display:inline;fill:#FFFFFF;" points="163.759,284.461 198.079,122.996 161.49,122.996 127.17,284.461 	"/>
	<polygon style="display:inline;fill:#FFFFFF;" points="163.759,284.461 198.079,122.996 161.49,122.996 127.17,284.461 	"/>
	<polygon style="display:inline;fill:#FFFFFF;" points="163.759,284.461 198.079,122.996 161.49,122.996 127.17,284.461 	"/>
	<polygon style="display:inline;fill:#FFFFFF;" points="163.759,284.461 198.079,122.996 161.49,122.996 127.17,284.461 	"/>
	<polygon style="display:inline;fill:#FFFFFF;" points="163.759,284.461 198.079,122.996 161.49,122.996 127.17,284.461 	"/>
	<polygon style="display:inline;fill:#FFFFFF;" points="163.759,284.461 198.079,122.996 161.49,122.996 127.17,284.461 	"/>
	<polygon style="display:inline;fill:#FFFFFF;" points="163.759,284.461 198.079,122.996 161.49,122.996 127.17,284.461 	"/>
</g>
<g id="Shadow">
	<ellipse id="_x3C_Path_x3E__1_" style="fill:#F5F5F5;" cx="245.178" cy="412.391" rx="193.889" ry="11.323"/>
</g>
<g id="Device">
	<g>
		<g>
			<g>
				<path style="fill:#263238;" d="M163.893,400.722v2.917c0,1.511,1.225,2.735,2.736,2.735h104.617c1.392,0,2.52-1.128,2.52-2.52
					v-2.808c0-1.392-1.128-2.52-2.52-2.52h-26.017c-2.956,0-5.198-2.663-4.693-5.576l9.125-52.724h-59.42l-25.443,56.299
					C164.201,397.844,163.893,399.275,163.893,400.722z"/>
				<path style="opacity:0.2;fill:#FFFFFF;" d="M273.763,401.041v2.82c0,1.395-1.119,2.514-2.514,2.514H166.634
					c-1.512,0-2.747-1.235-2.747-2.732v-2.921c0-0.77,0.087-1.541,0.262-2.296c0.16-0.654,0.363-1.293,0.639-1.904l25.449-56.289
					h59.429l-9.128,52.714c-0.058,0.32-0.087,0.625-0.072,0.93c0.043,2.209,1.642,4.113,3.779,4.549
					c0.32,0.073,0.64,0.102,0.988,0.102h26.016C272.644,398.526,273.763,399.66,273.763,401.041z"/>
				<g>
					<g>
						<path style="fill:#263238;" d="M161.434,396.525l25.442-56.299h3.363l-25.443,56.299c-0.596,1.319-0.904,2.749-0.904,4.197
							v2.917c0,1.511,1.225,2.735,2.736,2.735h-3.363c-1.511,0-2.736-1.225-2.736-2.735v-2.917
							C160.529,399.275,160.838,397.844,161.434,396.525z"/>
					</g>
				</g>
				<polygon style="opacity:0.3;" points="190.24,340.227 249.66,340.227 247.331,353.681 184.16,353.681 				"/>
			</g>
			<g>
				<g>
					<g>
						<path style="fill:#263238;" d="M352.732,346.14H99.212c-5.12,0-9.63-4.15-10.08-9.27l-16.03-183.2
							c-0.45-5.12,3.34-9.27,8.46-9.27h253.52c5.12,0,9.64,4.15,10.08,9.27l16.03,183.2
							C361.642,341.99,357.852,346.14,352.732,346.14z"/>
					</g>
					<path style="fill:#407BFF;" d="M359.459,317.057l1.733,19.811c0.448,5.119-3.339,9.268-8.458,9.268H99.208
						c-5.119,0-9.631-4.15-10.079-9.268l-1.733-19.811H359.459z"/>
					<path style="opacity:0.6;fill:#FFFFFF;" d="M359.459,317.057l1.733,19.811c0.448,5.119-3.339,9.268-8.458,9.268H99.208
						c-5.119,0-9.631-4.15-10.079-9.268l-1.733-19.811H359.459z"/>
				</g>
				<path style="fill:#407BFF;" d="M96.343,311.461h253.19c2.776,0,4.829-2.25,4.586-5.026l-13.247-151.414
					c-0.243-2.775-2.69-5.025-5.466-5.025H82.217c-2.776,0-4.829,2.25-4.586,5.025l13.247,151.414
					C91.121,309.211,93.568,311.461,96.343,311.461z"/>
				<path style="opacity:0.6;fill:#FFFFFF;" d="M96.343,311.461h253.19c2.776,0,4.829-2.25,4.586-5.026l-13.247-151.414
					c-0.243-2.775-2.69-5.025-5.466-5.025H82.217c-2.776,0-4.829,2.25-4.586,5.025l13.247,151.414
					C91.121,309.211,93.568,311.461,96.343,311.461z"/>
				<g>
					<path style="fill:#407BFF;" d="M75.953,144.401h5.606c-5.119,0-8.905,4.15-8.458,9.268l16.028,183.198
						c0.448,5.119,4.961,9.268,10.079,9.268h-5.605c-5.119,0-9.632-4.15-10.079-9.268L67.496,153.669
						C67.048,148.551,70.834,144.401,75.953,144.401z"/>
					<path style="opacity:0.3;fill:#FFFFFF;" d="M75.953,144.401h5.606c-5.119,0-8.905,4.15-8.458,9.268l16.028,183.198
						c0.448,5.119,4.961,9.268,10.079,9.268h-5.605c-5.119,0-9.632-4.15-10.079-9.268L67.496,153.669
						C67.048,148.551,70.834,144.401,75.953,144.401z"/>
				</g>
				<g>
					<g>
						<g>
							<polygon style="opacity:0.2;fill:#263238;" points="300.306,278.291 159.616,278.291 152.344,195.178 293.035,195.178 
															"/>
							<g>
								<path style="fill:#FFFFFF;" d="M242.913,227.56c0.846,9.667-6.305,17.504-15.972,17.504
									c-9.667,0-18.189-7.837-19.035-17.504c-0.846-9.667,6.305-17.503,15.972-17.503
									C233.545,210.057,242.067,217.893,242.913,227.56z"/>
								<polygon style="fill:#263238;" points="235.01,228.207 219.704,219.795 221.176,236.619 								"/>
							</g>
						</g>
						<g>
							<g>
								<polygon style="fill:#FFFFFF;" points="297.018,261.979 160.05,261.979 159.814,259.284 296.782,259.284 								"/>
								<polygon style="fill:#407BFF;" points="236.828,261.979 160.05,261.979 159.814,259.284 236.592,259.284 								"/>
							</g>
							<g>
								<g>
									<polygon style="fill:#FFFFFF;" points="162.402,271.969 161.079,271.969 160.625,266.778 161.948,266.778 									"/>
									<polygon style="fill:#FFFFFF;" points="164.712,271.969 163.39,271.969 162.935,266.778 164.258,266.778 									"/>
								</g>
								<g>
									<polygon style="fill:#FFFFFF;" points="176.581,271.969 171.39,271.969 170.936,266.778 176.127,266.778 									"/>
									<polygon style="fill:#FFFFFF;" points="183.47,269.374 187.739,266.778 188.193,271.969 									"/>
									<polygon style="fill:#FFFFFF;" points="183.697,271.969 182.374,271.969 181.92,266.778 183.243,266.778 									"/>
									<g>
										<polygon style="fill:#FFFFFF;" points="198.046,269.374 193.324,266.778 193.777,271.969 										"/>
										<polygon style="fill:#FFFFFF;" points="198.273,271.969 199.596,271.969 199.141,266.778 197.819,266.778 										"/>
									</g>
									<g>
										<polygon style="fill:#FFFFFF;" points="207.702,266.681 205.381,269.812 210.572,269.812 										"/>
										<polygon style="fill:#FFFFFF;" points="210.865,272.066 210.749,270.743 205.367,270.743 205.482,272.066 										"/>
									</g>
								</g>
							</g>
							<g>
								<g>
									<path style="fill:#FFFFFF;" d="M297.99,272.393h-10.023l-0.538-6.136h10.02L297.99,272.393z M288.744,271.544h8.318
										l-0.388-4.438h-8.315L288.744,271.544z"/>
								</g>
								<g>
									<polygon style="fill:#FFFFFF;" points="280.595,272.393 278.568,272.393 278.409,270.594 279.258,270.521 279.345,271.544 
										280.595,271.544 									"/>
								</g>
								<g>
									<polygon style="fill:#FFFFFF;" points="285.092,272.393 283.052,272.393 283.052,271.544 284.163,271.544 284.08,270.594 
										284.93,270.521 									"/>
								</g>
								<g>
									<polygon style="fill:#FFFFFF;" points="283.871,268.211 283.779,267.106 282.591,267.106 282.591,266.258 284.555,266.258 
										284.721,268.138 									"/>
								</g>
								<g>
									<polygon style="fill:#FFFFFF;" points="278.203,268.213 278.028,266.258 280.134,266.258 280.134,267.106 278.956,267.106 
										279.046,268.136 									"/>
								</g>
							</g>
						</g>
						
							<polyline style="opacity:0.1;fill:#FFFFFF;stroke:#263238;stroke-linecap:round;stroke-linejoin:round;stroke-miterlimit:10;" points="
							281.557,259.285 280.941,261.981 279.864,266.683 278.872,271.013 277.205,278.291 281.348,278.291 283.981,266.683 
							285.045,261.981 285.658,259.285 295.03,217.971 						"/>
						<path style="opacity:0.1;fill:#FFFFFF;stroke:#263238;stroke-linecap:round;stroke-linejoin:round;stroke-miterlimit:10;" d="
							M293.921,205.293"/>
					</g>
					<g>
						<polygon style="fill:#407BFF;" points="293.036,195.178 152.344,195.178 151.687,187.662 292.378,187.662 						"/>
						<g>
							<path style="fill:#FFFFFF;" d="M162.313,191.473c0.113,1.282-0.836,2.322-2.118,2.322s-2.413-1.039-2.525-2.322
								c-0.113-1.282,0.836-2.322,2.118-2.322C161.071,189.152,162.201,190.191,162.313,191.473z"/>
							<path style="fill:#FFFFFF;" d="M169.265,191.473c0.112,1.282-0.836,2.322-2.118,2.322c-1.283,0-2.413-1.039-2.525-2.322
								c-0.112-1.282,0.837-2.322,2.119-2.322C168.023,189.152,169.153,190.191,169.265,191.473z"/>
							<path style="fill:#FFFFFF;" d="M176.217,191.473c0.112,1.282-0.836,2.322-2.119,2.322c-1.283,0-2.413-1.039-2.525-2.322
								c-0.112-1.282,0.836-2.322,2.118-2.322C174.974,189.152,176.105,190.191,176.217,191.473z"/>
						</g>
					</g>
				</g>
				<g style="opacity:0.1;">
					<polygon style="fill:#FFFFFF;" points="186.593,149.997 176.854,149.997 142.533,311.461 152.272,311.461 					"/>
					<polygon style="fill:#FFFFFF;" points="132.691,311.461 167.011,149.997 130.422,149.997 96.102,311.461 					"/>
				</g>
			</g>
		</g>
		<path style="opacity:0.2;fill:#FFFFFF;" d="M181.969,401.06v2.678c0,1.456,1.18,2.636,2.636,2.636h86.642
			c1.391,0,2.519-1.128,2.519-2.519v-2.809c0-1.391-1.128-2.519-2.518-2.519h-26.022c-0.337,0-0.661-0.035-0.975-0.104h-59.646
			C183.15,398.424,181.969,399.604,181.969,401.06z"/>
		<path style="opacity:0.2;" d="M164.155,398.424h80.096c-2.147-0.43-3.738-2.333-3.784-4.55h-74.27L164.155,398.424z"/>
	</g>
</g>
<g id="Ads_3">
	<g>
		<g>
			<polygon style="fill:#263238;" points="332.064,227.357 231.957,227.357 231.255,219.325 331.361,219.325 			"/>
			<g>
				<path style="fill:#FFFFFF;" d="M242.611,223.399c0.12,1.37-0.894,2.481-2.264,2.481c-1.37,0-2.579-1.111-2.698-2.481
					c-0.12-1.37,0.894-2.481,2.264-2.481C241.284,220.917,242.492,222.028,242.611,223.399z"/>
				<path style="fill:#FFFFFF;" d="M250.041,223.399c0.12,1.37-0.894,2.481-2.264,2.481c-1.371,0-2.579-1.111-2.699-2.481
					c-0.12-1.37,0.894-2.481,2.265-2.481C248.713,220.917,249.921,222.028,250.041,223.399z"/>
				<path style="fill:#FFFFFF;" d="M257.471,223.399c0.12,1.37-0.894,2.481-2.264,2.481c-1.371,0-2.579-1.111-2.699-2.481
					c-0.12-1.37,0.894-2.481,2.264-2.481C256.143,220.917,257.351,222.028,257.471,223.399z"/>
			</g>
		</g>
		<g>
			<g>
				<g>
					<g>
						<polygon style="opacity:0.2;" points="235.099,326.012 226.341,225.906 326.448,225.906 335.206,326.012 						"/>
					</g>
					<g>
						<polygon style="fill:#407BFF;" points="340.119,319.432 240.012,319.432 231.254,219.325 331.361,219.325 						"/>
					</g>
				</g>
				<g>
					<g>
						<g>
							<path style="fill:#407BFF;" d="M310.676,277.634c1.51,17.263-8.742,24.267-22.144,24.267
								c-13.402,0-25.218-10.865-26.39-24.267c-1.173-13.402,8.196-30.501,21.599-30.501
								C283.74,247.132,309.294,261.83,310.676,277.634z"/>
						</g>
						<g>
							<path style="fill:#407BFF;" d="M294.827,280.44c0.305,3.487-2.296,5.82-6.643,6.186l-0.324,2.885h-2.622l0.324-2.885
								c-2.512-0.235-4.783-1.021-6.207-2.018l1.472-3.251c1.48,1.023,3.293,1.678,5.119,1.862l0.504-4.431
								c-2.502-0.734-5.262-1.704-5.54-4.878c-0.305-3.487,2.347-5.846,6.776-6.162l0.325-2.884h2.622l-0.322,2.912
								c1.878,0.182,3.628,0.708,4.955,1.494l-1.314,3.251c-1.194-0.76-2.597-1.207-4.027-1.363l-0.513,4.615
								C291.885,276.48,294.563,277.424,294.827,280.44z M286.855,275.038l0.43-3.776c-1.469,0.289-2.237,1.1-2.176,2.098
								C285.181,274.173,285.877,274.644,286.855,275.038z M290.639,281.121c-0.066-0.76-0.711-1.233-1.658-1.573l-0.393,3.592
								C289.977,282.85,290.726,282.118,290.639,281.121z"/>
						</g>
					</g>
				</g>
			</g>
			<g>
				<g>
					<path style="fill:#263238;" d="M273.067,281.661c4.5,7.762,15.297,10.94,24.115,7.099c8.818-3.842,12.319-13.248,7.818-21.01
						c-4.5-7.762-15.297-10.94-24.115-7.099C272.067,264.492,268.567,273.899,273.067,281.661z"/>
					<path style="fill:#407BFF;" d="M271.276,278.571c4.5,7.762,15.297,10.94,24.115,7.099c8.818-3.842,12.319-13.248,7.818-21.01
						c-4.5-7.762-15.297-10.94-24.115-7.099C270.276,261.402,266.775,270.809,271.276,278.571z"/>
					<path style="opacity:0.4;fill:#FFFFFF;" d="M271.276,278.571c4.5,7.762,15.297,10.94,24.115,7.099
						c8.818-3.842,12.319-13.248,7.818-21.01c-4.5-7.762-15.297-10.94-24.115-7.099
						C270.276,261.402,266.775,270.809,271.276,278.571z"/>
					<path style="fill:#407BFF;" d="M275.13,276.58c0.215,0.37,0.456,0.729,0.68,1.059c0.043,0.017,0.033,0.057,0.05,0.085
						c3.758,4.996,11.198,6.855,17.335,4.181c6.164-2.685,8.883-8.97,6.501-14.565c-0.017-0.028-0.06-0.045-0.049-0.085
						c-0.172-0.353-0.36-0.735-0.574-1.105c-3.367-5.808-11.478-8.195-18.092-5.314C274.392,263.706,271.762,270.772,275.13,276.58z
						"/>
					<path style="opacity:0.3;fill:#FFFFFF;" d="M275.81,277.639c0.043,0.017,0.033,0.057,0.05,0.085
						c3.758,4.996,11.198,6.855,17.335,4.181c6.164-2.685,8.883-8.97,6.501-14.565c-0.017-0.028-0.06-0.045-0.049-0.085
						c-3.742-4.968-11.198-6.855-17.362-4.169C276.146,265.759,273.444,272.072,275.81,277.639z"/>
				</g>
				<g style="opacity:0.4;">
					<path style="fill:#FFFFFF;" d="M291.93,274.391c0.402,2.3-1.178,3.839-4.025,4.08l-0.047,1.903h-1.729l0.047-1.903
						c-1.67-0.155-3.214-0.674-4.21-1.331l0.783-2.145c1.035,0.675,2.269,1.107,3.484,1.228l0.077-2.922
						c-1.693-0.484-3.569-1.124-3.936-3.217c-0.402-2.3,1.211-3.856,4.114-4.064l0.048-1.902h1.729l-0.045,1.92
						c1.249,0.12,2.434,0.467,3.355,0.985l-0.679,2.145c-0.832-0.501-1.783-0.796-2.734-0.899l-0.072,3.044
						C289.761,271.78,291.582,272.402,291.93,274.391z M286.36,270.828l0.065-2.49c-0.952,0.191-1.412,0.726-1.314,1.384
						C285.206,270.258,285.692,270.569,286.36,270.828z M289.207,274.841c-0.088-0.501-0.54-0.813-1.185-1.038l-0.052,2.369
						C288.87,275.981,289.322,275.498,289.207,274.841z"/>
				</g>
			</g>
			
				<text transform="matrix(0.9962 0 0.0872 0.9962 267.1544 245.5387)" style="fill:#FFFFFF; font-family:'Montserrat-ExtraBold'; font-size:12.874px;">Only</text>
			
				<text transform="matrix(0.9962 0 0.0872 0.9962 259.8994 305.2906)" style="fill:#FFFFFF; font-family:'Montserrat-ExtraBold'; font-size:9.2148px;">1$/month !!!</text>
		</g>
		<g>
			<polygon style="fill:#263238;" points="332.064,226.806 231.957,226.806 231.255,218.774 331.361,218.774 			"/>
			<g>
				<path style="fill:#FFFFFF;" d="M242.611,222.848c0.12,1.37-0.894,2.481-2.264,2.481c-1.37,0-2.579-1.111-2.698-2.481
					c-0.12-1.37,0.894-2.481,2.264-2.481C241.284,220.366,242.492,221.477,242.611,222.848z"/>
				<path style="fill:#FFFFFF;" d="M250.041,222.848c0.12,1.37-0.894,2.481-2.264,2.481c-1.371,0-2.579-1.111-2.699-2.481
					c-0.12-1.37,0.894-2.481,2.265-2.481C248.713,220.366,249.921,221.477,250.041,222.848z"/>
				<path style="fill:#FFFFFF;" d="M257.471,222.848c0.12,1.37-0.894,2.481-2.264,2.481c-1.371,0-2.579-1.111-2.699-2.481
					c-0.12-1.37,0.894-2.481,2.264-2.481C256.143,220.366,257.351,221.477,257.471,222.848z"/>
			</g>
		</g>
	</g>
</g>
<g id="Ads_4">
	<g>
		<g>
			<g>
				<g>
					<polygon style="opacity:0.2;" points="236.505,206.345 228.31,112.678 321.978,112.678 330.172,206.345 					"/>
				</g>
				<g>
					<polygon style="fill:#407BFF;" points="334.769,200.188 241.102,200.188 232.907,106.521 326.575,106.521 					"/>
				</g>
			</g>
			<g>
				<path style="fill:#FFFFFF;" d="M275.188,134.208l-4.457-7.252c0,0,2.473-5.285,5.979-5.48c3.506-0.196,7.499,2.936,7.499,2.936
					l4.337-1.881l-2.273,12.727C286.272,135.258,280.521,140.286,275.188,134.208z"/>
				<g>
					<g>
						<path style="fill:#407BFF;" d="M307.22,161.078c1.413,16.152-8.179,22.706-20.72,22.706c-12.54,0-23.596-10.166-24.693-22.706
							c-1.097-12.54,7.669-28.539,20.209-28.539C282.017,132.539,305.927,146.291,307.22,161.078z"/>
						<path style="fill:#FFFFFF;" d="M307.22,161.078c1.413,16.152-8.179,22.706-20.72,22.706c-12.54,0-23.596-10.166-24.693-22.706
							c-1.097-12.54,7.669-28.539,20.209-28.539C282.017,132.539,305.927,146.291,307.22,161.078z"/>
					</g>
					<g>
						<path style="fill:#407BFF;" d="M293.016,162.704c1.142,3.263-0.719,5.445-4.696,5.788l0.405,2.699h-2.453l-0.405-2.699
							c-2.408-0.22-4.726-0.956-6.303-1.889l0.579-3.042c1.636,0.957,3.493,1.57,5.247,1.742l-0.617-4.146
							c-2.522-0.687-5.342-1.594-6.382-4.564c-1.142-3.262,0.76-5.47,4.827-5.766l-0.405-2.699h2.453l0.414,2.724
							c1.802,0.171,3.568,0.663,5.003,1.398l-0.431,3.042c-1.304-0.711-2.726-1.129-4.102-1.276l0.653,4.318
							C289.291,158.999,292.028,159.882,293.016,162.704z M284.23,157.649l-0.525-3.533c-1.303,0.27-1.823,1.03-1.521,1.963
							C282.451,156.84,283.218,157.281,284.23,157.649z M289.264,163.341c-0.249-0.711-0.968-1.154-1.938-1.472l0.514,3.361
							C289.07,164.959,289.591,164.274,289.264,163.341z"/>
					</g>
				</g>
				<path style="opacity:0.1;" d="M283.556,134.761c-0.843-2.767-1.603-5.572-2.445-8.34c-0.922-0.781-2.188-1.12-3.301-0.885
					c-1.112,0.235-1.868,1.035-2.248,2.091c0.754,2.334,1.801,4.597,3.109,6.716c0.532-0.759,1.338-1.013,2.307-0.977
					C281.946,133.4,282.944,133.96,283.556,134.761z"/>
				<path style="opacity:0.1;" d="M284.671,133.781c0.372-2.132,0.553-4.378,0.926-6.51c-0.454,0.238-0.787,0.468-1.242,0.706
					c-0.058,1.635-0.432,5.554-0.315,5.794"/>
			</g>
		</g>
		<g>
			<polygon style="fill:#263238;" points="327.232,114.036 233.565,114.036 232.908,106.521 326.574,106.521 			"/>
			<g>
				<path style="fill:#FFFFFF;" d="M243.534,110.332c0.113,1.282-0.836,2.322-2.118,2.322s-2.413-1.039-2.525-2.322
					c-0.113-1.282,0.836-2.322,2.118-2.322S243.422,109.05,243.534,110.332z"/>
				<path style="fill:#FFFFFF;" d="M250.486,110.332c0.112,1.282-0.836,2.322-2.119,2.322c-1.283,0-2.413-1.039-2.525-2.322
					c-0.112-1.282,0.837-2.322,2.119-2.322C249.243,108.01,250.374,109.05,250.486,110.332z"/>
				<path style="fill:#FFFFFF;" d="M257.438,110.332c0.112,1.282-0.836,2.322-2.118,2.322c-1.283,0-2.413-1.039-2.525-2.322
					c-0.112-1.282,0.836-2.322,2.119-2.322C256.195,108.01,257.325,109.05,257.438,110.332z"/>
			</g>
		</g>
	</g>
</g>
<g id="Ads_2_1_">
	<g>
		<g>
			<g>
				<g style="opacity:0.2;">
					<polygon points="210.899,346.514 105.251,346.514 91.474,189.044 197.122,189.044 					"/>
				</g>
				<g>
					<polygon style="fill:#407BFF;" points="217.441,338.161 111.793,338.161 98.016,180.692 203.665,180.692 					"/>
				</g>
				<g style="opacity:0.1;">
					<polygon style="fill:#FFFFFF;" points="217.441,338.161 111.793,338.161 98.016,180.692 203.665,180.692 					"/>
				</g>
			</g>
			<polygon style="fill:#F5F5F5;" points="155.291,225.152 166.429,212.558 172.232,229.594 188.702,224.816 185.411,241.729 
				202.8,246.047 191.296,258.305 204.945,270.563 188.311,274.881 194.562,291.794 177.256,287.016 174.434,304.052 
				161.092,291.457 149.954,304.052 144.151,287.016 127.681,291.794 130.972,274.881 113.583,270.563 125.087,258.305 
				111.438,246.047 128.072,241.729 121.821,224.816 139.127,229.594 141.949,212.558 			"/>
			<g>
				<path style="fill:#407BFF;" d="M146.397,249.277c0.992,0.884,1.436,2.066,1.331,3.548c-0.068,0.957-0.369,1.829-0.903,2.614
					c-0.535,0.786-1.31,1.414-2.322,1.885c-1.014,0.471-2.24,0.707-3.676,0.707c-1.108,0-2.187-0.144-3.236-0.437
					c-1.05-0.292-1.93-0.707-2.639-1.246l1.634-2.784c0.566,0.449,1.231,0.796,1.991,1.045c0.76,0.247,1.553,0.369,2.376,0.369
					c0.913,0,1.644-0.179,2.194-0.539c0.549-0.358,0.847-0.86,0.892-1.503c0.048-0.674-0.189-1.182-0.711-1.528
					c-0.523-0.343-1.457-0.515-2.804-0.515h-4.018l1.435-8.846h9.586l-0.207,2.92h-6.555l-0.458,2.985h1.28
					C143.8,247.952,145.404,248.394,146.397,249.277z"/>
				<path style="fill:#407BFF;" d="M152.164,257.067c-0.972-0.643-1.704-1.575-2.192-2.795c-0.49-1.219-0.676-2.675-0.556-4.367
					c0.12-1.69,0.512-3.146,1.175-4.366c0.662-1.219,1.525-2.15,2.589-2.796c1.063-0.643,2.246-0.965,3.548-0.965
					c1.303,0,2.439,0.322,3.412,0.965c0.972,0.645,1.702,1.577,2.193,2.796c0.489,1.22,0.674,2.676,0.554,4.366
					c-0.12,1.692-0.512,3.148-1.174,4.367c-0.663,1.221-1.525,2.152-2.589,2.795c-1.064,0.643-2.246,0.965-3.549,0.965
					C154.273,258.031,153.136,257.71,152.164,257.067z M158.137,253.721c0.605-0.822,0.968-2.095,1.09-3.816
					c0.122-1.721-0.061-2.993-0.549-3.817c-0.488-0.822-1.21-1.235-2.169-1.235c-0.943,0-1.716,0.413-2.321,1.235
					c-0.605,0.824-0.968,2.096-1.09,3.817c-0.122,1.721,0.061,2.995,0.549,3.816c0.488,0.824,1.203,1.235,2.146,1.235
					C156.751,254.957,157.532,254.546,158.137,253.721z"/>
				<path style="fill:#407BFF;" d="M165.518,249.355c-0.67-0.786-0.958-1.836-0.864-3.153c0.093-1.318,0.531-2.37,1.311-3.156
					c0.782-0.785,1.749-1.178,2.902-1.178c1.152,0,2.059,0.393,2.723,1.178c0.662,0.786,0.947,1.838,0.853,3.156
					c-0.094,1.317-0.527,2.368-1.301,3.153c-0.774,0.786-1.738,1.178-2.89,1.178C167.099,250.534,166.188,250.141,165.518,249.355z
					 M169.628,248.065c0.321-0.42,0.512-1.041,0.57-1.863c0.058-0.824-0.044-1.445-0.306-1.864
					c-0.262-0.418-0.648-0.628-1.157-0.628c-0.494,0-0.906,0.212-1.235,0.639c-0.33,0.426-0.523,1.043-0.58,1.853
					c-0.057,0.807,0.048,1.425,0.317,1.85c0.269,0.428,0.65,0.641,1.145,0.641C168.891,248.694,169.306,248.484,169.628,248.065z
					 M178.215,242.047h2.672l-11.846,15.716h-2.671L178.215,242.047z M176.419,257.416c-0.567-0.352-0.991-0.857-1.274-1.516
					c-0.282-0.658-0.393-1.421-0.331-2.289c0.062-0.868,0.28-1.632,0.656-2.291c0.376-0.658,0.872-1.164,1.488-1.514
					c0.616-0.351,1.298-0.528,2.046-0.528c1.153,0,2.064,0.393,2.735,1.178c0.67,0.786,0.959,1.838,0.865,3.155
					c-0.093,1.317-0.532,2.368-1.313,3.153c-0.782,0.786-1.749,1.179-2.902,1.179C177.642,257.942,176.985,257.767,176.419,257.416z
					 M179.767,255.461c0.322-0.426,0.511-1.043,0.569-1.851c0.057-0.809-0.044-1.427-0.306-1.853
					c-0.261-0.428-0.647-0.639-1.156-0.639c-0.493,0-0.906,0.21-1.234,0.628c-0.329,0.418-0.523,1.04-0.581,1.864
					c-0.058,0.822,0.047,1.443,0.317,1.863c0.269,0.418,0.652,0.629,1.145,0.629C179.029,256.102,179.446,255.889,179.767,255.461z"
					/>
				<path style="fill:#407BFF;" d="M138.425,280.175c-1.26-0.703-2.216-1.673-2.869-2.907c-0.653-1.235-0.926-2.624-0.816-4.165
					c0.109-1.54,0.578-2.929,1.407-4.164c0.828-1.235,1.922-2.203,3.282-2.908c1.359-0.702,2.854-1.054,4.486-1.054
					c1.631,0,3.074,0.353,4.326,1.054c1.252,0.705,2.208,1.674,2.869,2.908c0.661,1.235,0.937,2.624,0.827,4.164
					c-0.109,1.542-0.582,2.931-1.418,4.165c-0.837,1.233-1.93,2.204-3.282,2.907c-1.351,0.703-2.843,1.054-4.475,1.054
					C141.13,281.229,139.684,280.878,138.425,280.175z M145.542,277.493c0.778-0.428,1.408-1.023,1.888-1.785
					c0.481-0.764,0.755-1.632,0.824-2.605c0.069-0.972-0.083-1.84-0.455-2.603c-0.372-0.764-0.917-1.359-1.636-1.785
					c-0.719-0.428-1.541-0.639-2.469-0.639c-0.928,0-1.781,0.212-2.559,0.639c-0.779,0.426-1.409,1.021-1.89,1.785
					c-0.481,0.764-0.755,1.632-0.824,2.603c-0.069,0.974,0.082,1.841,0.455,2.605c0.373,0.762,0.918,1.357,1.636,1.785
					c0.718,0.426,1.541,0.639,2.469,0.639C143.909,278.132,144.762,277.918,145.542,277.493z"/>
				<path style="fill:#407BFF;" d="M158.662,268.164l-0.294,4.153h7.274l-0.207,2.92h-7.274l-0.406,5.724h-3.637l1.114-15.716
					h11.876l-0.207,2.92H158.662z"/>
				<path style="fill:#407BFF;" d="M173.008,268.164l-0.295,4.153h7.274l-0.207,2.92h-7.274l-0.406,5.724h-3.637l1.114-15.716
					h11.876l-0.207,2.92H173.008z"/>
			</g>
		</g>
		<g>
			<polygon style="fill:#263238;" points="204.587,191.228 98.918,191.228 97.996,180.692 203.665,180.692 			"/>
			<g>
				<path style="fill:#FFFFFF;" d="M112.895,186.036c0.158,1.798-1.173,3.255-2.97,3.255c-1.798,0-3.382-1.458-3.539-3.255
					c-0.158-1.798,1.173-3.255,2.97-3.255S112.738,184.238,112.895,186.036z"/>
				<path style="fill:#FFFFFF;" d="M122.642,186.036c0.157,1.798-1.173,3.255-2.97,3.255c-1.798,0-3.382-1.458-3.54-3.255
					c-0.157-1.798,1.173-3.255,2.971-3.255S122.484,184.238,122.642,186.036z"/>
				<path style="fill:#FFFFFF;" d="M132.388,186.036c0.158,1.798-1.173,3.255-2.97,3.255c-1.798,0-3.383-1.458-3.54-3.255
					c-0.157-1.798,1.173-3.255,2.97-3.255C130.646,182.78,132.231,184.238,132.388,186.036z"/>
			</g>
		</g>
	</g>
</g>
<g id="Ads_1_1_">
	<g>
		<g>
			<g>
				<polygon style="opacity:0.2;" points="240.861,168.02 89.871,168.02 87.811,144.4 238.802,144.4 				"/>
				<polygon style="fill:#407BFF;" points="245.957,161.895 94.962,161.895 87.251,73.685 238.246,73.685 				"/>
				<polygon style="opacity:0.1;fill:#FFFFFF;" points="245.957,161.895 94.962,161.895 87.251,73.685 238.246,73.685 				"/>
			</g>
		</g>
		<g>
			<polygon style="fill:#263238;" points="238.864,80.754 87.869,80.754 87.251,73.685 238.246,73.685 			"/>
			<g>
				<path style="fill:#FFFFFF;" d="M97.246,77.27c0.106,1.206-0.787,2.184-1.993,2.184c-1.206,0-2.269-0.978-2.375-2.184
					c-0.106-1.206,0.787-2.184,1.993-2.184S97.141,76.064,97.246,77.27z"/>
				<path style="fill:#FFFFFF;" d="M103.785,77.27c0.105,1.206-0.787,2.184-1.993,2.184c-1.206,0-2.269-0.978-2.375-2.184
					c-0.105-1.206,0.787-2.184,1.993-2.184S103.679,76.064,103.785,77.27z"/>
				<path style="fill:#FFFFFF;" d="M110.323,77.27c0.106,1.206-0.787,2.184-1.993,2.184c-1.206,0-2.27-0.978-2.375-2.184
					c-0.106-1.206,0.787-2.184,1.993-2.184C109.154,75.087,110.217,76.064,110.323,77.27z"/>
			</g>
		</g>
		<g>
			<polygon style="fill:#F5F5F5;" points="197.441,93.89 203.491,87.049 206.643,96.303 215.59,93.707 213.803,102.895 
				223.249,105.241 217,111.9 224.414,118.558 215.378,120.904 218.774,130.092 209.372,127.496 207.84,136.751 200.592,129.909 
				194.541,136.751 191.389,127.496 182.442,130.092 184.23,120.904 174.784,118.558 181.033,111.9 173.619,105.241 
				182.654,102.895 179.259,93.707 188.66,96.303 190.193,87.049 			"/>
			<g>
				<path style="fill:#407BFF;" d="M193.136,112.1h1.599l0.232,2.649c-0.694,0.53-1.683,0.813-2.615,0.813
					c-2.037,0-3.646-1.379-3.817-3.325c-0.17-1.946,1.198-3.325,3.272-3.325c1.196,0,2.201,0.411,2.897,1.169l-1.06,1.041
					c-0.481-0.484-1.003-0.712-1.615-0.712c-1.096,0-1.764,0.722-1.667,1.827c0.094,1.078,0.891,1.827,1.968,1.827
					c0.338,0,0.652-0.064,0.959-0.21L193.136,112.1z"/>
				<path style="fill:#407BFF;" d="M201.193,114.036l0.122,1.398h-5.134l-0.559-6.394h5.015l0.122,1.397h-3.224l0.094,1.078h2.841
					l0.118,1.352h-2.841l0.102,1.169H201.193z"/>
				<path style="fill:#407BFF;" d="M203.25,110.474h-1.964l-0.125-1.434h5.727l0.126,1.434h-1.955l0.434,4.96h-1.809L203.25,110.474
					z"/>
				<path style="fill:#407BFF;" d="M202.448,122.377l0.125,1.434h-4.978l-0.099-1.133l2.197-2.238
					c0.47-0.475,0.517-0.767,0.494-1.032c-0.036-0.411-0.332-0.658-0.879-0.658c-0.466,0-0.868,0.21-1.088,0.621l-1.408-0.749
					c0.413-0.804,1.272-1.334,2.532-1.334c1.47,0,2.551,0.758,2.655,1.946c0.054,0.621-0.07,1.187-0.91,2.028l-1.108,1.114H202.448z
					"/>
			</g>
			<g>
				<path style="fill:#407BFF;" d="M193.315,105.163c0.075,0.852-0.586,1.352-1.91,1.352h-2.662l-0.431-4.93h2.521
					c1.296,0,1.976,0.528,2.042,1.289c0.041,0.472-0.165,0.852-0.568,1.071C192.88,104.142,193.262,104.565,193.315,105.163z
					 M189.78,102.593l0.083,0.951h0.958c0.465,0,0.69-0.162,0.662-0.479c-0.027-0.31-0.281-0.472-0.746-0.472H189.78z
					 M191.893,105.008c-0.03-0.338-0.297-0.5-0.776-0.5h-1.169l0.087,1h1.169C191.683,105.509,191.922,105.346,191.893,105.008z"/>
				<path style="fill:#407BFF;" d="M193.92,104.318l-0.239-2.732h1.395l0.235,2.69c0.074,0.845,0.456,1.183,1.04,1.183
					c0.578,0,0.9-0.338,0.826-1.183l-0.235-2.69h1.373l0.239,2.732c0.129,1.472-0.658,2.296-2.116,2.296
					C194.98,106.614,194.048,105.79,193.92,104.318z"/>
				<path style="fill:#407BFF;" d="M202.102,104.748l0.155,1.768h-1.394l-0.156-1.789l-2.156-3.141h1.472l1.34,1.958l0.998-1.958
					h1.352L202.102,104.748z"/>
				<path style="fill:#407BFF;" d="M207.968,101.586l0.431,4.93h-1.395l-0.337-3.852h-0.915l-0.094-1.077H207.968z"/>
			</g>
		</g>
		<g>
			<g>
				<path style="fill:#263238;" d="M143.131,118.403l-1.05-2.246c-11.372,0.526-13.029-3.774-13.265-5.144
					c-0.438-2.539,1.655-4.852,4.665-5.155c4.149-0.429,7.265,3.321,8.903,5.792c1.929-2.595,5.91-4.739,9.053-4.739
					c0.001,0,0.002,0,0.003,0c2.406,0,4.214,1.133,4.987,3.423c0.621,1.84,0.069,2.978-0.497,3.686
					c-2.393,2.993-10.102,2.413-12.426,2.174L143.131,118.403z M144.083,113.853c3.496,0.306,8.518,0.078,9.796-1.521
					c0.204-0.255,0.414-0.517,0.138-1.335c-0.392-1.161-1.11-1.543-2.356-1.543c-0.001,0-0.002,0-0.003,0
					C148.88,109.454,145.174,111.823,144.083,113.853z M134.349,108.368c-0.13,0-0.261,0.007-0.393,0.02
					c-1.711,0.173-2.797,1.415-2.625,2.41c0.194,1.121,2.465,3.028,9.508,2.851C139.815,111.892,137.384,108.368,134.349,108.368z"
					/>
			</g>
			<polygon style="fill:#407BFF;" points="170.328,148.868 120.769,148.868 117.79,114.823 167.349,114.823 			"/>
			<polygon style="opacity:0.1;fill:#FFFFFF;" points="170.328,148.868 120.769,148.868 117.79,114.823 167.349,114.823 			"/>
			<polygon style="opacity:0.2;enable-background:new    ;" points="170.328,148.868 120.769,148.868 118.82,126.586 
				168.378,126.586 			"/>
			<polygon style="fill:#263238;" points="154.844,114.823 150.818,114.823 153.796,148.868 157.823,148.868 			"/>
			<polygon style="fill:#263238;" points="130.684,148.868 127.727,148.868 124.749,114.823 127.706,114.823 			"/>
			<polygon style="opacity:0.2;enable-background:new    ;" points="140.46,148.868 120.769,148.868 117.79,114.823 
				137.482,114.823 			"/>
		</g>
		<g>
			<g>
				<path style="fill:#263238;" d="M184.607,126.763c-1.544,0.162-6.691,0.554-8.664-1.471c-0.466-0.479-0.975-1.253-0.773-2.497
					c0.252-1.549,1.34-2.32,2.968-2.32c0.001,0,0.001,0,0.002,0c2.126,0,5.074,1.455,6.686,3.21c0.816-1.671,2.48-4.207,5.338-3.916
					c2.073,0.205,3.763,1.771,3.767,3.489c0.002,0.927-0.609,3.837-8.365,3.48l-0.444,1.52L184.607,126.763z M178.289,122.171
					c-0.001,0-0.001,0-0.002,0c-0.843,0-1.282,0.275-1.41,1.06c-0.09,0.553,0.084,0.739,0.252,0.911
					c1.054,1.082,4.477,1.223,6.807,1.017C182.958,123.785,180.169,122.171,178.289,122.171z M186.108,125.041
					c4.786,0.12,6.096-1.171,6.095-1.929c-0.001-0.673-0.883-1.513-2.061-1.631c-0.091-0.009-0.18-0.013-0.268-0.013
					C187.82,121.469,186.593,123.852,186.108,125.041z"/>
			</g>
			<polygon style="fill:#407BFF;" points="170.328,148.868 203.855,148.868 201.84,125.836 168.313,125.836 			"/>
			<polygon style="opacity:0.6;fill:#FFFFFF;" points="170.328,148.868 203.855,148.868 201.84,125.836 168.313,125.836 			"/>
			<polygon style="opacity:0.1;enable-background:new    ;" points="170.328,148.868 203.855,148.868 202.537,133.794 
				169.009,133.794 			"/>
			<polygon style="opacity:0.2;fill:#FFFFFF;" points="190.534,148.868 203.855,148.868 201.84,125.836 188.518,125.836 			"/>
			<polygon style="fill:#263238;" points="176.772,125.836 179.497,125.836 181.512,148.868 178.787,148.868 			"/>
			<polygon style="fill:#263238;" points="197.147,148.868 199.148,148.868 197.133,125.836 195.132,125.836 			"/>
		</g>
	</g>
</g>
<g id="Character">
	<g>
		<g>
			<g>
				<g>
					<g>
						<g>
							<polygon style="fill:#FF8B7B;" points="348.302,394.707 341.088,387.625 332.078,407.551 337.355,410.977 							"/>
							<polygon style="opacity:0.2;enable-background:new    ;" points="346.848,396.842 343.307,402.111 336.106,398.609 
								339.807,390.426 							"/>
						</g>
						<g>
							<g>
								<path style="fill:#407BFF;" d="M386.016,415.604c-0.05-0.004-0.1-0.008-0.15-0.012c-2.781-0.219-5.374-1.571-7.094-3.767
									c-7.307-9.328-11.56-23.434-16.211-32.695c-0.578-1.161-1.189-2.225-1.856-3.164c-0.17,0.712-0.38,1.427-0.642,2.16
									c-4.28,12.672-13.156,21.747-13.156,21.747l-9.257-6.176c0,0,11.573-28.481,12.82-31.281
									c10.124-22.787,34.513,4.896,43.559,21.15c1.43,2.554,2.531,4.854,3.242,6.661l21.641,0.714
									C420.452,403.367,414.899,417.874,386.016,415.604z"/>
							</g>
							<g style="opacity:0.4;enable-background:new    ;">
								<path d="M386.016,415.604c-0.014-0.001-0.027-0.002-0.041-0.003c-2.852-0.221-5.514-1.607-7.272-3.864
									c-7.265-9.328-11.505-23.375-16.142-32.607c-0.578-1.161-1.189-2.225-1.856-3.164c-0.17,0.712-0.38,1.427-0.642,2.16
									c-4.28,12.672-13.156,21.747-13.156,21.747l-9.257-6.176c0,0,11.573-28.481,12.82-31.281
									c10.124-22.787,34.513,4.896,43.559,21.15c1.43,2.554,2.531,4.854,3.242,6.661l21.641,0.714
									C420.452,403.367,414.899,417.874,386.016,415.604z"/>
							</g>
						</g>
						<polygon style="fill:#263238;" points="351.932,396.936 338.415,389.431 336.707,394.135 348.359,401.134 						"/>
						<g>
							<path style="fill:#263238;" d="M332.971,402.031c-3.136,1.018-6.7,1.941-14.266,0.625c-1.681-0.305-3.115,3.65,0.601,5.161
								c3.716,1.511,19.533,6.299,19.59,6.315c0.816,0.233,1.667-0.24,1.9-1.057l2.075-8.339c0.078-0.384-0.132-0.768-0.498-0.908
								l-7.738-1.75C334.102,401.874,333.515,401.857,332.971,402.031z"/>
						</g>
						<path style="fill:#407BFF;" d="M332.701,402.39c0.066-0.071,0.083-0.174,0.044-0.263c-0.04-0.088-0.134-0.139-0.23-0.124
							c-0.488,0.052-4.739,0.574-5.349,1.767c-0.114,0.226-0.106,0.494,0.022,0.713c0.181,0.376,0.54,0.635,0.954,0.686
							c0.824-0.002,1.621-0.29,2.256-0.815C331.224,403.772,331.995,403.114,332.701,402.39z M327.857,403.647
							c1.273-0.596,2.639-0.969,4.038-1.103c-1.561,1.476-2.911,2.282-3.692,2.176c-0.269-0.036-0.502-0.205-0.618-0.45
							c-0.057-0.087-0.063-0.198-0.015-0.291c0.076-0.125,0.18-0.23,0.305-0.306L327.857,403.647z"/>
						<path style="fill:#407BFF;" d="M332.773,402.283c0.028-0.074,0.016-0.157-0.034-0.219c-0.07-0.088-1.697-2.099-3.258-2.253
							c-0.452-0.052-0.906,0.086-1.253,0.381c-0.49,0.404-0.495,0.794-0.35,1.006c0.458,0.996,3.486,1.438,4.718,1.225
							c0.03-0.012,0.057-0.03,0.079-0.054C332.716,402.348,332.749,402.319,332.773,402.283z M328.583,400.454
							c0.243-0.175,0.544-0.253,0.841-0.216c1.018,0.099,2.149,1.198,2.659,1.76c-1.354,0.063-3.534-0.415-3.812-1.021
							c-0.021-0.044-0.096-0.197,0.225-0.465l0.112-0.077L328.583,400.454z"/>
					</g>
					<g>
						<path style="fill:#407BFF;" d="M389.208,415.958c-1.287-0.099-2.64-0.232-4.02-0.375
							c-29.532-3.25-78.368-17.734-84.298-34.446c0,0-7.004-19.987,18.232-15.183c7.65,1.459,21.12,4.36,33.241,7.806
							c5.26,1.475,24.29,9.356,25.278,11.116l16.926,0.752l24.741,1.11c0.556,1.796,0.983,3.73,1.236,5.729
							C422.01,404.302,416.721,418.12,389.208,415.958z"/>
					</g>
					<g style="opacity:0.3;">
						<path d="M389.208,415.958c-1.287-0.099-2.64-0.232-4.02-0.375c-29.532-3.25-78.368-17.734-84.298-34.446
							c0,0-7.004-19.987,18.232-15.183c7.65,1.459,21.12,4.36,33.241,7.806c5.26,1.475,24.29,9.356,25.278,11.116l16.926,0.752
							l24.741,1.11c0.556,1.796,0.983,3.73,1.236,5.729C422.01,404.302,416.721,418.12,389.208,415.958z"/>
					</g>
				</g>
				<g>
					<g id="freepik--Character--inject-578_1_">
						<path style="fill:#263238;" d="M406.131,282.016c8.088,33.365,2.205,30.618,0.195,31.657c0.882,1.588,3.437,2.443,4.887,1.349
							c1.451-1.094,2.019-3.044,1.975-4.86c-0.044-1.816-1.181-20.91-3.965-28.044c-0.24-0.614-0.556-1.267-1.154-1.545
							C407.471,280.295,405.976,281.375,406.131,282.016z"/>
						<path style="fill:#FF8B7B;" d="M398.84,311.362c1.465,4.253,1.845,6.772-4.289,8.808c0,0-6.956,9.88,3.029,23.528
							c5.761-7.76,10.602-16.161,14.428-25.036c-4.246-3.406-3.851-11.677-3.237-17.383L398.84,311.362z"/>
						<path style="fill:#263238;" d="M388.693,321.079c1.23-1.896,3.109-3.278,5.285-3.888c3.724-1.083,17.89-0.451,19.223,0.642
							c1.38,1.026,2.375,2.486,2.825,4.145L388.693,321.079z"/>
						<path style="opacity:0.2;enable-background:new    ;" d="M415.714,338.953c1.301,3.366,2.934,6.595,4.874,9.638l7.18-4.731
							c-0.65-1.333-1.42-2.604-2.299-3.799C422.298,336.152,418.609,336.851,415.714,338.953z"/>
						<g>
							<g>
								<g>
									<path style="fill:#FF8B7B;" d="M415.803,359.145c0,0,0.354-4.475,0.535-7.211c0.181-2.736,0.355-5.482,0.453-8.231
										c0.098-2.749,0.16-5.524,0.239-8.269c0.021-0.737,0.037-1.48,0.048-2.223c0.051-3.363,2.702-6.107,6.063-6.243l0,0
										c3.813-0.155,6.892,3.076,6.553,6.878c-0.386,4.325-0.899,9.154-1.015,10.833c-0.2,2.878-0.538,5.754-0.877,8.638
										c-0.34,2.884-0.825,5.766-1.371,8.649l-0.24,0.929L415.803,359.145z"/>
								</g>
							</g>
							<path style="fill:#FF8B7B;" d="M387.835,363.23l-8.344-3.899c-0.697-0.326-1.507-0.31-2.191,0.043l-7.685,3.967
								c-0.673,0.348-1.151,0.983-1.298,1.726l0,0c-0.292,1.482,0.795,2.88,2.304,2.961l7.386,0.397l11.114,2.126
								C389.121,370.552,392.9,365.597,387.835,363.23z"/>
							<path style="fill:#FF8B7B;" d="M416.656,357.82l-28.821,5.41c0,0,0.31,7.834,1.286,7.322
								c0.658-0.345,17.454-0.634,28.326-0.785c5.099-0.071,9.227-4.155,9.357-9.253l0,0L416.656,357.82z"/>
						</g>
						<g>
							<path style="fill:#407BFF;" d="M415.337,328.934c-3.407,4.448-0.653,17.651-0.653,17.651l17.025-3.715
								c0,0,0.321-15.845-3.01-18.78C424.896,320.746,418.84,324.308,415.337,328.934z"/>
						</g>
						<g style="opacity:0.1;">
							<path d="M415.337,328.934c-3.407,4.448-0.653,17.651-0.653,17.651l17.025-3.715c0,0,0.321-15.845-3.01-18.78
								C424.896,320.746,418.84,324.308,415.337,328.934z"/>
						</g>
						<g>
							<g>
								<g>
									<path style="fill:#263238;" d="M381.99,372.104h3.103c0.327,0,0.592-0.242,0.592-0.541v-2.995
										c0-0.298-0.265-0.54-0.592-0.54h-2.228c-0.268,0-0.503,0.165-0.572,0.401l-0.875,2.995
										C381.318,371.768,381.601,372.104,381.99,372.104z"/>
									<path style="fill:#263238;" d="M377.702,372.104h3.103c0.327,0,0.593-0.242,0.593-0.541v-2.995
										c0-0.298-0.265-0.54-0.593-0.54h-2.228c-0.268,0-0.503,0.165-0.573,0.401l-0.875,2.995
										C377.029,371.768,377.313,372.104,377.702,372.104z"/>
									<path style="fill:#263238;" d="M373.413,372.104h3.103c0.327,0,0.592-0.242,0.592-0.541v-2.995
										c0-0.298-0.265-0.54-0.592-0.54h-2.228c-0.268,0-0.503,0.165-0.573,0.401l-0.875,2.995
										C372.741,371.768,373.024,372.104,373.413,372.104z"/>
									<path style="fill:#263238;" d="M369.125,372.104h3.103c0.327,0,0.592-0.242,0.592-0.541v-2.995
										c0-0.298-0.265-0.54-0.592-0.54H370c-0.269,0-0.503,0.165-0.572,0.401l-0.875,2.995
										C368.452,371.768,368.736,372.104,369.125,372.104z"/>
									<path style="fill:#263238;" d="M364.837,372.104h3.103c0.327,0,0.592-0.242,0.592-0.541v-2.995
										c0-0.298-0.265-0.54-0.592-0.54h-2.228c-0.268,0-0.503,0.165-0.572,0.401l-0.875,2.995
										C364.164,371.768,364.447,372.104,364.837,372.104z"/>
									<path style="fill:#263238;" d="M360.548,372.104h3.103c0.327,0,0.592-0.242,0.592-0.541v-2.995
										c0-0.298-0.265-0.54-0.592-0.54h-2.228c-0.268,0-0.503,0.165-0.572,0.401l-0.875,2.995
										C359.875,371.768,360.159,372.104,360.548,372.104z"/>
									<path style="fill:#263238;" d="M356.26,372.104h3.103c0.327,0,0.593-0.242,0.593-0.541v-2.995
										c0-0.298-0.265-0.54-0.593-0.54h-2.228c-0.268,0-0.503,0.165-0.572,0.401l-0.875,2.995
										C355.587,371.768,355.871,372.104,356.26,372.104z"/>
									<path style="fill:#263238;" d="M351.971,372.104h3.103c0.327,0,0.592-0.242,0.592-0.541v-2.995
										c0-0.298-0.265-0.54-0.592-0.54h-2.228c-0.269,0-0.503,0.165-0.573,0.401l-0.875,2.995
										C351.299,371.768,351.582,372.104,351.971,372.104z"/>
									<path style="fill:#263238;" d="M347.683,372.104h3.103c0.327,0,0.592-0.242,0.592-0.541v-2.995
										c0-0.298-0.265-0.54-0.592-0.54h-2.228c-0.268,0-0.503,0.165-0.572,0.401l-0.875,2.995
										C347.01,371.768,347.294,372.104,347.683,372.104z"/>
									<path style="fill:#263238;" d="M343.395,372.104h3.103c0.327,0,0.593-0.242,0.593-0.541v-2.995
										c0-0.298-0.265-0.54-0.593-0.54h-2.228c-0.268,0-0.503,0.165-0.572,0.401l-0.875,2.995
										C342.722,371.768,343.005,372.104,343.395,372.104z"/>
									<path style="fill:#263238;" d="M339.106,372.104h3.103c0.327,0,0.592-0.242,0.592-0.541v-2.995
										c0-0.298-0.265-0.54-0.592-0.54h-2.228c-0.268,0-0.503,0.165-0.573,0.401l-0.875,2.995
										C338.434,371.768,338.717,372.104,339.106,372.104z"/>
									<path style="fill:#263238;" d="M334.818,372.104h3.103c0.327,0,0.593-0.242,0.593-0.541v-2.995
										c0-0.298-0.265-0.54-0.593-0.54h-2.228c-0.269,0-0.503,0.165-0.573,0.401l-0.875,2.995
										C334.145,371.768,334.429,372.104,334.818,372.104z"/>
									<path style="fill:#263238;" d="M330.53,372.104h3.103c0.327,0,0.592-0.242,0.592-0.541v-2.995
										c0-0.298-0.265-0.54-0.592-0.54h-2.228c-0.268,0-0.503,0.165-0.573,0.401l-0.875,2.995
										C329.857,371.768,330.14,372.104,330.53,372.104z"/>
									<path style="fill:#263238;" d="M326.241,372.104h3.103c0.327,0,0.592-0.242,0.592-0.541v-2.995
										c0-0.298-0.265-0.54-0.592-0.54h-2.228c-0.268,0-0.503,0.165-0.573,0.401l-0.875,2.995
										C325.568,371.768,325.852,372.104,326.241,372.104z"/>
									<path style="fill:#263238;" d="M321.953,372.104h3.103c0.327,0,0.592-0.242,0.592-0.541v-2.995
										c0-0.298-0.265-0.54-0.592-0.54h-2.228c-0.268,0-0.503,0.165-0.573,0.401l-0.875,2.995
										C321.28,371.768,321.564,372.104,321.953,372.104z"/>
								</g>
								<path style="fill:#263238;" d="M318.83,372.429c0,1.304,1.166,2.357,2.583,2.357h64.208c1.429,0,2.583-1.052,2.583-2.357
									c0-0.652-0.288-1.247-0.752-1.67c-0.452-0.412-1.078-0.675-1.768-0.686h-64.271c-0.251,0-0.489,0.034-0.715,0.091
									C319.619,370.45,318.83,371.353,318.83,372.429z"/>
							</g>
							<path style="opacity:0.2;fill:#FFFFFF;" d="M318.83,372.429c0,1.304,1.166,2.357,2.583,2.357h64.208
								c1.429,0,2.583-1.052,2.583-2.357c0-0.652-0.288-1.247-0.752-1.67c-0.452-0.412-1.078-0.675-1.768-0.686h-64.271
								c-0.251,0-0.489,0.034-0.715,0.091C319.619,370.45,318.83,371.353,318.83,372.429z"/>
							<path style="fill:#263238;" d="M318.83,372.429c0,1.304,1.166,2.357,2.583,2.357h21.741c1.041-0.309,1.793-1.201,1.793-2.254
								c0-0.149-0.013-0.286-0.038-0.423c-0.1-0.48-0.351-0.915-0.727-1.247c-0.163-0.149-0.351-0.275-0.552-0.389
								c-0.1-0.046-0.201-0.091-0.301-0.137c-0.314-0.115-0.639-0.172-0.991-0.172h-21.64
								C319.619,370.45,318.83,371.353,318.83,372.429z"/>
						</g>
						<path style="fill:#407BFF;" d="M393.327,318.96c6.199-0.208,11.93,0.343,18.919,1.081c3.91,0.435,7.794,1.078,11.636,1.925
							c0.118,0.026,0.236,0.055,0.352,0.088c3.019,0.86,4.769,4.004,3.909,7.023c-8.509,29.844-9.034,40.048-9.292,56.065
							l-41.636-2.399c-0.701-6.711,2.174-13.552,1.354-23.593c-2.095-25.632-4.638-24.874-3.94-29.862
							C373.97,322.314,388.235,319.128,393.327,318.96z"/>
						<path style="fill:#263238;" d="M388.927,289.886c-0.495-0.043-0.957,0.54-1.017,1.305c-0.06,0.765,0.299,1.411,0.794,1.454
							c0.495,0.043,0.956-0.508,1.017-1.305C389.783,290.583,389.422,289.929,388.927,289.886z"/>
						<path style="fill:#263238;" d="M387.361,289.265l1.784,0.681C388.183,290.776,387.361,289.265,387.361,289.265z"/>
						<path style="fill:#A02724;" d="M388.658,297.881c0,0-1.774-0.007-2.52-1.173c1.784-1.171,3.854-4.039,3.854-4.039
							L388.658,297.881z"/>
						<path style="fill:#263238;" d="M389.339,286.931c1.143,0.054,2.191,0.653,2.818,1.61c0.011,0.027,0.026,0.052,0.042,0.077
							c0.14,0.205,0.42,0.259,0.626,0.119c0.206-0.14,0.259-0.42,0.119-0.626c-0.771-1.227-2.09-2.003-3.536-2.081
							c-0.247-0.015-0.462,0.169-0.484,0.416c-0.011,0.159,0.063,0.312,0.193,0.402
							C389.181,286.896,389.259,286.925,389.339,286.931z"/>
						<path style="fill:#FF8B7B;" d="M415.675,290.731c-1.359,9.314-1.723,13.286-6.846,17.707
							c-2.996,2.579-6.508,3.601-9.767,3.336c-0.02,0-0.05-0.009-0.07-0.008c-1.063-0.089-2.1-0.319-3.081-0.681
							c-0.859-0.315-1.672-0.732-2.437-1.229l0-0.01c-2.56-1.686-4.451-4.422-4.985-7.978c-1.321-8.595,1.107-22.392,10.585-25.36
							c6.76-2.168,13.992,1.573,16.15,8.332C415.829,286.745,415.988,288.761,415.675,290.731z"/>
						<path style="fill:#263238;" d="M405.328,309.574c1.022,0.85,2.503,0.859,3.536,0.022c3.614-2.924,11.591-10.117,12.697-17.572
							c1.444-9.677-2.422-15.87-9.548-17.803c-7.127-1.933-18.207-0.27-21.724,4.965c-3.516,5.234,0.051,6.251,6.475,14.905
							C395.347,300.325,402.026,306.806,405.328,309.574z"/>
						<path style="fill:#FF8B7B;" d="M396.795,290.733c-2.308,0.449-3.256,3.633-3.17,5.688c0.085,2.29,1.852,3.89,3.849,2.526
							c1.498-1.036,2.523-2.625,2.85-4.417C400.709,292.343,399.103,290.284,396.795,290.733z"/>
						<path style="fill:#263238;" d="M418.837,382.326l-41.564-2.388c-0.408-0.022-0.755,0.182-0.733,0.438l-0.593,3.423
							c0.004,0.628,0.244,0.832,0.619,0.857l43.1,2.374c0.475,0.025,0.841-0.248,0.706-0.551l-0.857-3.805
							C419.366,382.446,419.108,382.314,418.837,382.326z"/>
						<path style="fill:#407BFF;" d="M414.137,386.819l-0.249-4.878c-0.012-0.14,0.173-0.221,0.395-0.24l1.133,0.065
							c0.225,0.015,0.409,0.141,0.421,0.289l0.249,4.869c0.012,0.148-0.172,0.221-0.395,0.24l-1.133-0.065
							C414.335,387.118,414.149,386.967,414.137,386.819z"/>
						<path style="fill:#407BFF;" d="M380.3,384.805l0.384-4.888c0.006-0.149,0.223-0.362,0.446-0.353l1.088,0.096
							c0.222,0.041,0.393,0.253,0.388,0.393l-0.339,4.885c-0.005,0.14-0.205,0.302-0.428,0.294l-1.154-0.091
							C380.462,385.101,380.294,384.954,380.3,384.805z"/>
						<path style="fill:#407BFF;" d="M397.109,385.85l0.088-5.154c-0.002-0.149,0.187-0.209,0.41-0.213l1.117,0.141
							c0.224,0.03,0.399,0.168,0.401,0.308l-0.03,5.108c-0.006,0.141-0.187,0.201-0.41,0.204l-1.176-0.077
							C397.287,386.136,397.104,386.015,397.109,385.85z"/>
					</g>
				</g>
				<g>
					<g>
						<g>
							<path style="fill:#FF8B7B;" d="M374.727,356.428c0,0-0.018-4.654-0.066-7.497c-0.048-2.843-0.103-5.695-0.237-8.544
								c-0.135-2.849-0.309-5.722-0.462-8.565c-0.041-0.764-0.089-1.532-0.141-2.301c-0.236-3.479,2.269-6.542,5.729-6.972l0,0
								c3.927-0.487,7.385,2.588,7.361,6.545c-0.027,4.502-0.143,9.537-0.12,11.281c0.04,2.991-0.062,5.992-0.166,9.002
								c-0.104,3.01-0.358,6.029-0.675,9.055l-0.168,0.98L374.727,356.428z"/>
						</g>
					</g>
					<path style="fill:#FF8B7B;" d="M346.575,362.508l-7.698-2.848c-0.644-0.238-1.361-0.164-1.943,0.2l-6.533,4.09
						c-0.572,0.358-0.95,0.958-1.025,1.629l0,0c-0.15,1.338,0.919,2.499,2.264,2.46l6.589-0.192l10.028,1.069
						C348.257,368.916,351.247,364.236,346.575,362.508z"/>
					<path style="fill:#FF8B7B;" d="M375.494,354.986l-29.317,8.062c0,0,1.115,6.481,2.08,5.868
						c0.65-0.413,17.858-0.564,29.08-1.652c5.263-0.511,9.178-5.085,8.876-10.364l0,0L375.494,354.986z"/>
				</g>
				<g>
					<g>
						<path style="fill:#263238;" d="M378.244,322.233c-6.342,2.512-8.374,14.752-5.282,21.383
							c12.596-2.546,17.226,0.173,17.092,0.503c0.682-3.673,0.668-5.244,0.447-8.973s-1.442-7.531-4.089-10.168
							C383.767,322.342,381.64,320.676,378.244,322.233z"/>
					</g>
					<path style="fill:#407BFF;" d="M378.244,322.233c-6.342,2.512-8.374,14.752-5.282,21.383
						c12.596-2.546,17.226,0.173,17.092,0.503c0.682-3.673,0.668-5.244,0.447-8.973s-1.442-7.531-4.089-10.168
						C383.767,322.342,381.64,320.676,378.244,322.233z"/>
				</g>
			</g>
			<path style="opacity:0.2;enable-background:new    ;" d="M398.992,311.767c-1.063-0.089-2.1-0.319-3.081-0.681
				c-0.859-0.315-1.672-0.732-2.437-1.229l0-0.01c-0.011-0.03-0.021-0.049-0.032-0.069c1.171,0.366,2.471,0.328,3.629-0.086
				c0.326-0.129,0.692-0.28,1.016-0.14c0.355,0.15,0.487,0.566,0.578,0.943C398.777,310.913,398.88,311.35,398.992,311.767z"/>
		</g>
		<path style="fill:#263238;" d="M390.573,281.384c8.089,33.366,2.205,30.618,0.195,31.657c0.882,1.588,3.437,2.443,4.887,1.349
			c1.451-1.093,2.019-3.044,1.975-4.86c-0.044-1.816-1.181-20.91-3.965-28.044c-0.24-0.615-0.556-1.267-1.154-1.545
			C391.913,279.662,390.418,280.743,390.573,281.384z"/>
		<path style="fill:#263238;" d="M421.531,285.091c-1.368,1.374-3.656,0.922-5.505,0.337c-1.958-0.62-3.931-1.294-5.623-2.457
			c-1.692-1.163-3.096-2.888-3.436-4.912c-0.503-2.991,1.735-6.173,4.72-6.711c0.205-2.541,1.871-4.894,4.336-5.541
			c2.466-0.647,5.285,0.414,6.712,2.526c6.924,1.474,5.049,8.307,4.77,9.194c-0.279,0.888-1.025,1.697-1.953,1.75
			C425.857,281.36,423.61,284.767,421.531,285.091z"/>
	</g>
</g>
</svg>
